<mxfile host="app.diagrams.net" agent="Mozilla/5.0 (Windows NT 10.0; Win64; x64) AppleWebKit/537.36 (KHTML, like Gecko) Chrome/135.0.0.0 Safari/537.36 Edg/135.0.0.0" version="26.2.8">
  <diagram name="Página-1" id="e96mSk_Y15035hGiH_kj">
    <mxGraphModel dx="4040" dy="3506" grid="1" gridSize="10" guides="1" tooltips="1" connect="1" arrows="1" fold="1" page="1" pageScale="1" pageWidth="827" pageHeight="1169" math="0" shadow="0">
      <root>
        <mxCell id="0" />
        <mxCell id="1" parent="0" />
        <mxCell id="vQRRSYV09fOpZdYklut7-51" value="" style="group" parent="1" vertex="1" connectable="0">
          <mxGeometry x="80" y="-1120" width="1260" height="530" as="geometry" />
        </mxCell>
        <mxCell id="vQRRSYV09fOpZdYklut7-25" value="" style="rounded=1;whiteSpace=wrap;html=1;arcSize=4;glass=0;fillColor=#dae8fc;strokeColor=#6c8ebf;strokeWidth=1;gradientColor=none;shadow=0;sketch=1;curveFitting=1;jiggle=2;container=0;" parent="vQRRSYV09fOpZdYklut7-51" vertex="1">
          <mxGeometry x="630" width="630" height="530" as="geometry" />
        </mxCell>
        <mxCell id="vQRRSYV09fOpZdYklut7-17" value="" style="rounded=1;whiteSpace=wrap;html=1;arcSize=5;glass=0;fillColor=#e1d5e7;strokeColor=#9673a6;sketch=1;curveFitting=1;jiggle=2;container=0;" parent="vQRRSYV09fOpZdYklut7-51" vertex="1">
          <mxGeometry width="614.6341463414634" height="530" as="geometry" />
        </mxCell>
        <mxCell id="vQRRSYV09fOpZdYklut7-9" value="" style="verticalLabelPosition=bottom;verticalAlign=top;html=1;shape=mxgraph.basic.arc;strokeWidth=6;startAngle=0.3855946523174732;endAngle=0.11604299275966694;sketch=1;curveFitting=1;jiggle=2;container=0;" parent="vQRRSYV09fOpZdYklut7-51" vertex="1">
          <mxGeometry x="215.1219512195122" y="37.857142857142854" width="460.9756097560976" height="454.2857142857143" as="geometry" />
        </mxCell>
        <mxCell id="vQRRSYV09fOpZdYklut7-10" value="" style="verticalLabelPosition=bottom;verticalAlign=top;html=1;shape=mxgraph.basic.arc;strokeColor=#82b366;strokeWidth=6;startAngle=0.37025051654405133;endAngle=0.37017859836408784;fillColor=#d5e8d4;sketch=1;curveFitting=1;jiggle=2;container=0;" parent="vQRRSYV09fOpZdYklut7-51" vertex="1">
          <mxGeometry x="468.6585365853659" y="113.57142857142857" width="307.3170731707317" height="302.85714285714283" as="geometry" />
        </mxCell>
        <mxCell id="vQRRSYV09fOpZdYklut7-11" value="" style="verticalLabelPosition=bottom;verticalAlign=top;html=1;shape=mxgraph.basic.arc;strokeWidth=6;startAngle=0.3855946523174732;endAngle=0.11604299275966694;rotation=180;sketch=1;curveFitting=1;jiggle=2;container=0;" parent="vQRRSYV09fOpZdYklut7-51" vertex="1">
          <mxGeometry x="568.5365853658536" y="37.857142857142854" width="460.9756097560976" height="454.2857142857143" as="geometry" />
        </mxCell>
        <mxCell id="vQRRSYV09fOpZdYklut7-12" value="" style="verticalLabelPosition=bottom;verticalAlign=top;html=1;shape=mxgraph.basic.arc;strokeColor=#666666;strokeWidth=6;startAngle=0.3855946523174732;endAngle=0.11604299275966694;fillColor=#f5f5f5;sketch=1;curveFitting=1;jiggle=2;shadow=0;fontColor=#333333;container=0;" parent="vQRRSYV09fOpZdYklut7-51" vertex="1">
          <mxGeometry x="30.731707317073173" y="151.42857142857142" width="230.4878048780488" height="227.14285714285714" as="geometry" />
        </mxCell>
        <mxCell id="vQRRSYV09fOpZdYklut7-13" value="" style="verticalLabelPosition=bottom;verticalAlign=top;html=1;shape=mxgraph.basic.arc;strokeWidth=6;startAngle=0.3855946523174732;endAngle=0.11604299275966694;rotation=180;sketch=1;curveFitting=1;jiggle=2;fillColor=#f5f5f5;strokeColor=#666666;fontColor=#333333;container=0;" parent="vQRRSYV09fOpZdYklut7-51" vertex="1">
          <mxGeometry x="983.4146341463415" y="151.42857142857142" width="230.4878048780488" height="227.14285714285714" as="geometry" />
        </mxCell>
        <mxCell id="vQRRSYV09fOpZdYklut7-38" value="" style="html=1;shadow=0;dashed=0;align=center;verticalAlign=middle;shape=mxgraph.arrows2.arrow;dy=0;dx=10;notch=0;fillColor=#f5f5f5;fontColor=#333333;strokeColor=#666666;sketch=1;curveFitting=1;jiggle=2;container=0;" parent="vQRRSYV09fOpZdYklut7-51" vertex="1">
          <mxGeometry x="184.39024390243904" y="242.28571428571428" width="61.463414634146346" height="45.42857142857143" as="geometry" />
        </mxCell>
        <mxCell id="vQRRSYV09fOpZdYklut7-40" value="" style="html=1;shadow=0;dashed=0;align=center;verticalAlign=middle;shape=mxgraph.arrows2.arrow;dy=0;dx=10;notch=0;fillColor=#f5f5f5;fontColor=#333333;strokeColor=#666666;sketch=1;curveFitting=1;jiggle=2;rotation=-180;container=0;" parent="vQRRSYV09fOpZdYklut7-51" vertex="1">
          <mxGeometry x="986.4878048780488" y="242.28571428571428" width="61.463414634146346" height="45.42857142857143" as="geometry" />
        </mxCell>
        <mxCell id="vQRRSYV09fOpZdYklut7-42" value="&lt;span style=&quot;font-weight: normal;&quot;&gt;&lt;font face=&quot;Comic Sans MS&quot; style=&quot;color: light-dark(rgb(0, 0, 0), rgb(255, 255, 255));&quot;&gt;DOC&lt;/font&gt;&lt;/span&gt;" style="text;html=1;align=center;verticalAlign=middle;whiteSpace=wrap;rounded=0;rotation=-40;fontFamily=Verdana;fontStyle=1;fontSize=24;glass=0;shadow=0;spacing=2;container=0;" parent="vQRRSYV09fOpZdYklut7-51" vertex="1">
          <mxGeometry x="76.82926829268293" y="242.28571428571428" width="92.19512195121952" height="45.42857142857143" as="geometry" />
        </mxCell>
        <mxCell id="vQRRSYV09fOpZdYklut7-43" value="&lt;span style=&quot;font-weight: normal;&quot;&gt;&lt;font face=&quot;Comic Sans MS&quot; style=&quot;color: light-dark(rgb(0, 0, 0), rgb(255, 255, 255));&quot;&gt;DOC&lt;/font&gt;&lt;/span&gt;" style="text;html=1;align=center;verticalAlign=middle;whiteSpace=wrap;rounded=0;rotation=30;fontFamily=Verdana;fontStyle=1;fontSize=24;glass=0;shadow=0;spacing=2;container=0;" parent="vQRRSYV09fOpZdYklut7-51" vertex="1">
          <mxGeometry x="1075.609756097561" y="242.28571428571428" width="92.19512195121952" height="45.42857142857143" as="geometry" />
        </mxCell>
        <mxCell id="vQRRSYV09fOpZdYklut7-44" value="" style="ellipse;whiteSpace=wrap;html=1;aspect=fixed;fillColor=#d5e8d4;strokeColor=#82b366;container=0;" parent="vQRRSYV09fOpZdYklut7-51" vertex="1">
          <mxGeometry x="476.3414634146342" y="121.14285714285714" width="287.7142857142857" height="287.7142857142857" as="geometry" />
        </mxCell>
        <mxCell id="vQRRSYV09fOpZdYklut7-39" value="" style="html=1;shadow=0;dashed=0;align=center;verticalAlign=middle;shape=mxgraph.arrows2.arrow;dy=0;dx=10;notch=0;sketch=1;curveFitting=1;jiggle=2;fillColor=#f5f5f5;strokeColor=#666666;fontColor=#333333;container=0;" parent="vQRRSYV09fOpZdYklut7-51" vertex="1">
          <mxGeometry x="445.609756097561" y="242.28571428571428" width="61.463414634146346" height="45.42857142857143" as="geometry" />
        </mxCell>
        <mxCell id="vQRRSYV09fOpZdYklut7-41" value="" style="html=1;shadow=0;dashed=0;align=center;verticalAlign=middle;shape=mxgraph.arrows2.arrow;dy=0;dx=10;notch=0;sketch=1;curveFitting=1;jiggle=2;rotation=-180;fillColor=#f5f5f5;strokeColor=#666666;fontColor=#333333;container=0;" parent="vQRRSYV09fOpZdYklut7-51" vertex="1">
          <mxGeometry x="737.5609756097562" y="242.28571428571428" width="61.463414634146346" height="45.42857142857143" as="geometry" />
        </mxCell>
        <mxCell id="vQRRSYV09fOpZdYklut7-45" value="&lt;font style=&quot;font-size: 21px;&quot; face=&quot;Comic Sans MS&quot;&gt;&lt;b style=&quot;&quot;&gt;FUNCIONALIDADE&lt;/b&gt;&lt;/font&gt;" style="text;html=1;align=center;verticalAlign=middle;whiteSpace=wrap;rounded=0;container=0;" parent="vQRRSYV09fOpZdYklut7-51" vertex="1">
          <mxGeometry x="476.3414634146342" y="242.28571428571428" width="291.9512195121951" height="45.42857142857143" as="geometry" />
        </mxCell>
        <mxCell id="vQRRSYV09fOpZdYklut7-47" value="&lt;font style=&quot;font-size: 30px;&quot;&gt;BDD&lt;/font&gt;&lt;div&gt;&lt;font style=&quot;font-size: 30px;&quot;&gt;Automação&lt;/font&gt;&lt;/div&gt;" style="text;html=1;align=center;verticalAlign=middle;whiteSpace=wrap;rounded=0;rotation=-45;container=0;fontFamily=Comic Sans MS;" parent="vQRRSYV09fOpZdYklut7-51" vertex="1">
          <mxGeometry x="276.5853658536585" y="200.17342857142864" width="140.68975609756097" height="129.638" as="geometry" />
        </mxCell>
        <mxCell id="vQRRSYV09fOpZdYklut7-48" value="&lt;font style=&quot;font-size: 30px;&quot; face=&quot;Comic Sans MS&quot;&gt;&lt;b style=&quot;&quot;&gt;QA&lt;/b&gt;&lt;/font&gt;" style="text;html=1;align=center;verticalAlign=middle;whiteSpace=wrap;rounded=0;container=0;" parent="vQRRSYV09fOpZdYklut7-51" vertex="1">
          <mxGeometry width="261.219512195122" height="151.42857142857142" as="geometry" />
        </mxCell>
        <mxCell id="vQRRSYV09fOpZdYklut7-49" value="&lt;font style=&quot;font-size: 30px;&quot; face=&quot;Comic Sans MS&quot;&gt;&lt;b style=&quot;&quot;&gt;DEV&lt;/b&gt;&lt;/font&gt;" style="text;html=1;align=center;verticalAlign=middle;whiteSpace=wrap;rounded=0;container=0;" parent="vQRRSYV09fOpZdYklut7-51" vertex="1">
          <mxGeometry x="998.780487804878" width="261.219512195122" height="166.57142857142856" as="geometry" />
        </mxCell>
        <mxCell id="vQRRSYV09fOpZdYklut7-50" value="&lt;font style=&quot;font-size: 30px;&quot;&gt;TDD&lt;br&gt;&lt;/font&gt;&lt;div&gt;&lt;font style=&quot;font-size: 30px;&quot;&gt;Desenvolvimento&lt;/font&gt;&lt;/div&gt;" style="text;html=1;align=center;verticalAlign=middle;whiteSpace=wrap;rounded=0;rotation=45;container=0;fontFamily=Comic Sans MS;" parent="vQRRSYV09fOpZdYklut7-51" vertex="1">
          <mxGeometry x="829.7560975609756" y="200.17342857142864" width="140.68975609756097" height="129.638" as="geometry" />
        </mxCell>
        <mxCell id="vQRRSYV09fOpZdYklut7-53" value="" style="group" parent="1" vertex="1" connectable="0">
          <mxGeometry x="80" y="-560" width="1260" height="430" as="geometry" />
        </mxCell>
        <mxCell id="fWuZ5FwQuB-bUipdS1Gb-1" value="&lt;font face=&quot;Comic Sans MS&quot; style=&quot;font-size: 18px;&quot;&gt;Gitflow - &lt;span style=&quot;font-weight: normal;&quot;&gt;Exemplo nova feature&lt;/span&gt;&lt;/font&gt;" style="swimlane;horizontal=0;whiteSpace=wrap;html=1;rounded=1;glass=0;shadow=0;gradientColor=none;swimlaneFillColor=#FFFFFF;container=0;sketch=1;curveFitting=1;jiggle=2;startSize=40;arcSize=13;" parent="vQRRSYV09fOpZdYklut7-53" vertex="1">
          <mxGeometry width="1260" height="430" as="geometry" />
        </mxCell>
        <mxCell id="fWuZ5FwQuB-bUipdS1Gb-124" style="edgeStyle=orthogonalEdgeStyle;rounded=0;orthogonalLoop=1;jettySize=auto;html=1;entryX=0;entryY=0.25;entryDx=0;entryDy=0;exitX=0;exitY=0.75;exitDx=0;exitDy=0;fillColor=#dae8fc;strokeColor=#6c8ebf;sketch=1;curveFitting=1;jiggle=2;" parent="vQRRSYV09fOpZdYklut7-53" source="fWuZ5FwQuB-bUipdS1Gb-3" target="fWuZ5FwQuB-bUipdS1Gb-2" edge="1">
          <mxGeometry relative="1" as="geometry">
            <Array as="points">
              <mxPoint x="160.16949152542372" y="107.36842105263156" />
              <mxPoint x="160.16949152542372" y="142.10526315789474" />
            </Array>
          </mxGeometry>
        </mxCell>
        <mxCell id="fWuZ5FwQuB-bUipdS1Gb-3" value="v_00.01.000" style="rounded=1;whiteSpace=wrap;html=1;fillColor=#dae8fc;strokeColor=#6c8ebf;align=center;container=0;sketch=1;curveFitting=1;jiggle=2;" parent="vQRRSYV09fOpZdYklut7-53" vertex="1">
          <mxGeometry x="184.72881355932202" y="80" width="128.135593220339" height="35.78947368421053" as="geometry" />
        </mxCell>
        <mxCell id="fWuZ5FwQuB-bUipdS1Gb-127" style="edgeStyle=orthogonalEdgeStyle;rounded=0;orthogonalLoop=1;jettySize=auto;html=1;entryX=0;entryY=0.25;entryDx=0;entryDy=0;exitX=0;exitY=0.75;exitDx=0;exitDy=0;fillColor=#f5f5f5;strokeColor=#666666;sketch=1;curveFitting=1;jiggle=2;" parent="vQRRSYV09fOpZdYklut7-53" source="fWuZ5FwQuB-bUipdS1Gb-2" target="fWuZ5FwQuB-bUipdS1Gb-4" edge="1">
          <mxGeometry relative="1" as="geometry">
            <Array as="points">
              <mxPoint x="160.16949152542372" y="158.9473684210526" />
              <mxPoint x="160.16949152542372" y="194.73684210526312" />
            </Array>
          </mxGeometry>
        </mxCell>
        <mxCell id="fWuZ5FwQuB-bUipdS1Gb-2" value="r_00.01.000" style="rounded=1;whiteSpace=wrap;html=1;fillColor=#f5f5f5;strokeColor=#666666;fontColor=#333333;align=center;container=0;sketch=1;curveFitting=1;jiggle=2;" parent="vQRRSYV09fOpZdYklut7-53" vertex="1">
          <mxGeometry x="184.72881355932202" y="132.63157894736844" width="128.135593220339" height="35.78947368421053" as="geometry" />
        </mxCell>
        <mxCell id="fWuZ5FwQuB-bUipdS1Gb-128" style="edgeStyle=orthogonalEdgeStyle;rounded=0;orthogonalLoop=1;jettySize=auto;html=1;entryX=0;entryY=0.25;entryDx=0;entryDy=0;exitX=0;exitY=0.75;exitDx=0;exitDy=0;fillColor=#d5e8d4;strokeColor=#82b366;sketch=1;curveFitting=1;jiggle=2;" parent="vQRRSYV09fOpZdYklut7-53" source="fWuZ5FwQuB-bUipdS1Gb-4" target="fWuZ5FwQuB-bUipdS1Gb-5" edge="1">
          <mxGeometry relative="1" as="geometry">
            <Array as="points">
              <mxPoint x="160.16949152542372" y="212.63157894736844" />
              <mxPoint x="160.16949152542372" y="247.36842105263156" />
            </Array>
          </mxGeometry>
        </mxCell>
        <mxCell id="fWuZ5FwQuB-bUipdS1Gb-129" style="edgeStyle=orthogonalEdgeStyle;rounded=0;orthogonalLoop=1;jettySize=auto;html=1;entryX=0;entryY=0.25;entryDx=0;entryDy=0;exitX=0;exitY=0.75;exitDx=0;exitDy=0;fillColor=#d5e8d4;strokeColor=#82b366;sketch=1;curveFitting=1;jiggle=2;" parent="vQRRSYV09fOpZdYklut7-53" source="fWuZ5FwQuB-bUipdS1Gb-4" target="fWuZ5FwQuB-bUipdS1Gb-6" edge="1">
          <mxGeometry relative="1" as="geometry">
            <Array as="points">
              <mxPoint x="149.49152542372883" y="211.57894736842104" />
              <mxPoint x="149.49152542372883" y="300" />
            </Array>
          </mxGeometry>
        </mxCell>
        <mxCell id="fWuZ5FwQuB-bUipdS1Gb-130" style="edgeStyle=orthogonalEdgeStyle;rounded=0;orthogonalLoop=1;jettySize=auto;html=1;entryX=0;entryY=0.25;entryDx=0;entryDy=0;exitX=0;exitY=0.75;exitDx=0;exitDy=0;fillColor=#d5e8d4;strokeColor=#82b366;sketch=1;curveFitting=1;jiggle=2;" parent="vQRRSYV09fOpZdYklut7-53" source="fWuZ5FwQuB-bUipdS1Gb-4" target="fWuZ5FwQuB-bUipdS1Gb-18" edge="1">
          <mxGeometry relative="1" as="geometry">
            <Array as="points">
              <mxPoint x="138.81355932203394" y="212.63157894736844" />
              <mxPoint x="138.81355932203394" y="351.57894736842104" />
            </Array>
          </mxGeometry>
        </mxCell>
        <mxCell id="fWuZ5FwQuB-bUipdS1Gb-4" value="&lt;span style=&quot;font-family: Helvetica, Arial, freesans, sans-serif; font-size: 13px;&quot;&gt;&lt;font style=&quot;color: light-dark(rgb(188, 190, 196), rgb(255, 255, 255));&quot;&gt;Feature/F_0000001_GlobalException&lt;/font&gt;&lt;/span&gt;" style="rounded=1;whiteSpace=wrap;html=1;fillColor=#d5e8d4;strokeColor=#82b366;align=center;container=0;sketch=1;curveFitting=1;jiggle=2;" parent="vQRRSYV09fOpZdYklut7-53" vertex="1">
          <mxGeometry x="184.72881355932202" y="185.26315789473682" width="331.0169491525424" height="35.78947368421053" as="geometry" />
        </mxCell>
        <mxCell id="fWuZ5FwQuB-bUipdS1Gb-5" value="&lt;span style=&quot;font-family: Helvetica, Arial, freesans, sans-serif; font-size: 13px;&quot;&gt;&lt;font style=&quot;color: light-dark(rgb(188, 190, 196), rgb(255, 255, 255));&quot;&gt;&amp;nbsp;&lt;/font&gt;&lt;/span&gt;&lt;span style=&quot;font-family: Helvetica, Arial, freesans, sans-serif; font-size: 13px;&quot;&gt;Pamela.Cristina/&lt;/span&gt;&lt;span style=&quot;font-family: Helvetica, Arial, freesans, sans-serif; font-size: 13px;&quot;&gt;20250202-0900/BACK&lt;/span&gt;&lt;span style=&quot;font-family: Helvetica, Arial, freesans, sans-serif; font-size: 13px;&quot;&gt;/&lt;/span&gt;&lt;span style=&quot;font-family: Helvetica, Arial, freesans, sans-serif; font-size: 13px;&quot;&gt;&lt;font style=&quot;color: light-dark(rgb(188, 190, 196), rgb(255, 255, 255));&quot;&gt;Feature/F_0000001_GlobalException&lt;/font&gt;&lt;/span&gt;" style="rounded=1;whiteSpace=wrap;html=1;fillColor=#e1d5e7;strokeColor=#9673a6;align=left;container=0;sketch=1;curveFitting=1;jiggle=2;" parent="vQRRSYV09fOpZdYklut7-53" vertex="1">
          <mxGeometry x="184.72881355932202" y="237.89473684210526" width="555.2542372881356" height="35.78947368421053" as="geometry" />
        </mxCell>
        <mxCell id="fWuZ5FwQuB-bUipdS1Gb-6" value="&lt;span style=&quot;font-family: Helvetica, Arial, freesans, sans-serif; font-size: 13px;&quot;&gt;&lt;font style=&quot;color: light-dark(rgb(188, 190, 196), rgb(255, 255, 255));&quot;&gt;&amp;nbsp;&lt;/font&gt;&lt;/span&gt;&lt;span style=&quot;font-family: Helvetica, Arial, freesans, sans-serif; font-size: 13px;&quot;&gt;Gustavo.Boaz/&lt;/span&gt;&lt;span style=&quot;font-family: Helvetica, Arial, freesans, sans-serif; font-size: 13px;&quot;&gt;20250202-0912&lt;/span&gt;&lt;span style=&quot;font-family: Helvetica, Arial, freesans, sans-serif; font-size: 13px;&quot;&gt;/FRONT/&lt;/span&gt;&lt;span style=&quot;font-family: Helvetica, Arial, freesans, sans-serif; font-size: 13px;&quot;&gt;&lt;font style=&quot;color: light-dark(rgb(188, 190, 196), rgb(255, 255, 255));&quot;&gt;Feature/F_0000001_GlobalException&lt;/font&gt;&lt;/span&gt;" style="rounded=1;whiteSpace=wrap;html=1;fillColor=#e1d5e7;strokeColor=#9673a6;align=left;container=0;sketch=1;curveFitting=1;jiggle=2;" parent="vQRRSYV09fOpZdYklut7-53" vertex="1">
          <mxGeometry x="184.72881355932202" y="290.52631578947364" width="555.2542372881356" height="35.78947368421053" as="geometry" />
        </mxCell>
        <mxCell id="fWuZ5FwQuB-bUipdS1Gb-18" value="&lt;span style=&quot;font-family: Helvetica, Arial, freesans, sans-serif; font-size: 13px;&quot;&gt;&lt;font style=&quot;color: light-dark(rgb(188, 190, 196), rgb(255, 255, 255));&quot;&gt;&amp;nbsp;&lt;/font&gt;&lt;/span&gt;&lt;span style=&quot;font-family: Helvetica, Arial, freesans, sans-serif; font-size: 13px;&quot;&gt;Mallu.Moura&lt;/span&gt;&lt;span style=&quot;font-family: Helvetica, Arial, freesans, sans-serif; font-size: 13px;&quot;&gt;/20250202-0920&lt;/span&gt;&lt;span style=&quot;font-family: Helvetica, Arial, freesans, sans-serif; font-size: 13px;&quot;&gt;/BACK&lt;/span&gt;&lt;span style=&quot;font-family: Helvetica, Arial, freesans, sans-serif; font-size: 13px;&quot;&gt;/&lt;/span&gt;&lt;span style=&quot;font-family: Helvetica, Arial, freesans, sans-serif; font-size: 13px;&quot;&gt;&lt;font style=&quot;color: light-dark(rgb(188, 190, 196), rgb(255, 255, 255));&quot;&gt;Feature/F_0000001_GlobalException&lt;/font&gt;&lt;/span&gt;" style="rounded=1;whiteSpace=wrap;html=1;fillColor=#e1d5e7;strokeColor=#9673a6;align=left;container=0;sketch=1;curveFitting=1;jiggle=2;" parent="vQRRSYV09fOpZdYklut7-53" vertex="1">
          <mxGeometry x="184.72881355932202" y="343.1578947368421" width="555.2542372881356" height="35.78947368421053" as="geometry" />
        </mxCell>
        <mxCell id="fWuZ5FwQuB-bUipdS1Gb-17" value="" style="endArrow=none;html=1;strokeWidth=1;rounded=0;fontSize=12;startSize=8;endSize=8;curved=1;entryX=1;entryY=0;entryDx=0;entryDy=0;sketch=1;curveFitting=1;jiggle=2;" parent="vQRRSYV09fOpZdYklut7-53" target="fWuZ5FwQuB-bUipdS1Gb-53" edge="1">
          <mxGeometry width="50" height="50" relative="1" as="geometry">
            <mxPoint x="750" y="400" as="sourcePoint" />
            <mxPoint x="747.457627118644" y="27.36842105263156" as="targetPoint" />
          </mxGeometry>
        </mxCell>
        <mxCell id="fWuZ5FwQuB-bUipdS1Gb-63" style="edgeStyle=none;curved=1;rounded=0;orthogonalLoop=1;jettySize=auto;html=1;entryX=0;entryY=0.5;entryDx=0;entryDy=0;fontSize=12;startSize=8;endSize=8;endArrow=none;startFill=0;dashed=1;dashPattern=1 4;sketch=1;curveFitting=1;jiggle=2;" parent="vQRRSYV09fOpZdYklut7-53" source="fWuZ5FwQuB-bUipdS1Gb-43" target="fWuZ5FwQuB-bUipdS1Gb-60" edge="1">
          <mxGeometry relative="1" as="geometry" />
        </mxCell>
        <mxCell id="fWuZ5FwQuB-bUipdS1Gb-43" value="" style="ellipse;whiteSpace=wrap;html=1;aspect=fixed;fillColor=#e1d5e7;strokeColor=#9673a6;container=0;sketch=1;curveFitting=1;jiggle=2;" parent="vQRRSYV09fOpZdYklut7-53" vertex="1">
          <mxGeometry x="788.0338983050847" y="348.4210526315789" width="25.263157894736842" height="25.263157894736842" as="geometry" />
        </mxCell>
        <mxCell id="fWuZ5FwQuB-bUipdS1Gb-62" style="edgeStyle=none;curved=1;rounded=0;orthogonalLoop=1;jettySize=auto;html=1;entryX=0;entryY=0.5;entryDx=0;entryDy=0;fontSize=12;startSize=8;endSize=8;endArrow=none;startFill=0;dashed=1;dashPattern=1 4;sketch=1;curveFitting=1;jiggle=2;" parent="vQRRSYV09fOpZdYklut7-53" source="fWuZ5FwQuB-bUipdS1Gb-42" target="fWuZ5FwQuB-bUipdS1Gb-59" edge="1">
          <mxGeometry relative="1" as="geometry" />
        </mxCell>
        <mxCell id="fWuZ5FwQuB-bUipdS1Gb-42" value="" style="ellipse;whiteSpace=wrap;html=1;aspect=fixed;fillColor=#e1d5e7;strokeColor=#9673a6;container=0;sketch=1;curveFitting=1;jiggle=2;" parent="vQRRSYV09fOpZdYklut7-53" vertex="1">
          <mxGeometry x="788.0338983050847" y="295.7894736842105" width="25.263157894736842" height="25.263157894736842" as="geometry" />
        </mxCell>
        <mxCell id="fWuZ5FwQuB-bUipdS1Gb-61" style="edgeStyle=none;curved=1;rounded=0;orthogonalLoop=1;jettySize=auto;html=1;entryX=0;entryY=0.5;entryDx=0;entryDy=0;fontSize=12;startSize=8;endSize=8;endArrow=none;startFill=0;dashed=1;dashPattern=1 4;sketch=1;curveFitting=1;jiggle=2;" parent="vQRRSYV09fOpZdYklut7-53" source="fWuZ5FwQuB-bUipdS1Gb-41" target="fWuZ5FwQuB-bUipdS1Gb-58" edge="1">
          <mxGeometry relative="1" as="geometry" />
        </mxCell>
        <mxCell id="fWuZ5FwQuB-bUipdS1Gb-41" value="" style="ellipse;whiteSpace=wrap;html=1;aspect=fixed;fillColor=#e1d5e7;strokeColor=#9673a6;container=0;sketch=1;curveFitting=1;jiggle=2;" parent="vQRRSYV09fOpZdYklut7-53" vertex="1">
          <mxGeometry x="788.0338983050847" y="243.15789473684208" width="25.263157894736842" height="25.263157894736842" as="geometry" />
        </mxCell>
        <mxCell id="fWuZ5FwQuB-bUipdS1Gb-65" style="edgeStyle=none;curved=1;rounded=0;orthogonalLoop=1;jettySize=auto;html=1;entryX=0;entryY=0.5;entryDx=0;entryDy=0;fontSize=12;startSize=8;endSize=8;endArrow=none;startFill=0;dashed=1;dashPattern=1 4;sketch=1;curveFitting=1;jiggle=2;" parent="vQRRSYV09fOpZdYklut7-53" source="fWuZ5FwQuB-bUipdS1Gb-22" target="fWuZ5FwQuB-bUipdS1Gb-64" edge="1">
          <mxGeometry relative="1" as="geometry" />
        </mxCell>
        <mxCell id="fWuZ5FwQuB-bUipdS1Gb-22" value="" style="ellipse;whiteSpace=wrap;html=1;aspect=fixed;fillColor=#d5e8d4;strokeColor=#82b366;container=0;sketch=1;curveFitting=1;jiggle=2;" parent="vQRRSYV09fOpZdYklut7-53" vertex="1">
          <mxGeometry x="788.0338983050847" y="190.52631578947364" width="25.263157894736842" height="25.263157894736842" as="geometry" />
        </mxCell>
        <mxCell id="fWuZ5FwQuB-bUipdS1Gb-135" style="edgeStyle=orthogonalEdgeStyle;rounded=0;orthogonalLoop=1;jettySize=auto;html=1;entryX=0;entryY=0.5;entryDx=0;entryDy=0;endArrow=none;startFill=0;dashed=1;dashPattern=1 4;sketch=1;curveFitting=1;jiggle=2;" parent="vQRRSYV09fOpZdYklut7-53" source="fWuZ5FwQuB-bUipdS1Gb-20" target="fWuZ5FwQuB-bUipdS1Gb-134" edge="1">
          <mxGeometry relative="1" as="geometry" />
        </mxCell>
        <mxCell id="fWuZ5FwQuB-bUipdS1Gb-20" value="" style="ellipse;whiteSpace=wrap;html=1;aspect=fixed;fillColor=#f5f5f5;fontColor=#333333;strokeColor=#666666;container=0;sketch=1;curveFitting=1;jiggle=2;" parent="vQRRSYV09fOpZdYklut7-53" vertex="1">
          <mxGeometry x="788.0338983050847" y="137.89473684210526" width="25.263157894736842" height="25.263157894736842" as="geometry" />
        </mxCell>
        <mxCell id="fWuZ5FwQuB-bUipdS1Gb-138" style="edgeStyle=orthogonalEdgeStyle;rounded=0;orthogonalLoop=1;jettySize=auto;html=1;entryX=0;entryY=0.5;entryDx=0;entryDy=0;endArrow=none;startFill=0;dashed=1;dashPattern=1 4;sketch=1;curveFitting=1;jiggle=2;" parent="vQRRSYV09fOpZdYklut7-53" source="fWuZ5FwQuB-bUipdS1Gb-47" target="fWuZ5FwQuB-bUipdS1Gb-137" edge="1">
          <mxGeometry relative="1" as="geometry" />
        </mxCell>
        <mxCell id="fWuZ5FwQuB-bUipdS1Gb-47" value="" style="ellipse;whiteSpace=wrap;html=1;aspect=fixed;fillColor=#dae8fc;strokeColor=#6c8ebf;container=0;sketch=1;curveFitting=1;jiggle=2;" parent="vQRRSYV09fOpZdYklut7-53" vertex="1">
          <mxGeometry x="788.0338983050847" y="85.26315789473682" width="25.263157894736842" height="25.263157894736842" as="geometry" />
        </mxCell>
        <mxCell id="fWuZ5FwQuB-bUipdS1Gb-48" style="edgeStyle=none;curved=1;rounded=0;orthogonalLoop=1;jettySize=auto;html=1;entryX=0;entryY=0.5;entryDx=0;entryDy=0;fontSize=12;startSize=8;endSize=8;endArrow=none;startFill=0;dashed=1;dashPattern=1 4;strokeWidth=1;sketch=1;curveFitting=1;jiggle=2;" parent="vQRRSYV09fOpZdYklut7-53" source="fWuZ5FwQuB-bUipdS1Gb-3" target="fWuZ5FwQuB-bUipdS1Gb-47" edge="1">
          <mxGeometry relative="1" as="geometry" />
        </mxCell>
        <mxCell id="fWuZ5FwQuB-bUipdS1Gb-21" value="" style="endArrow=none;dashed=1;html=1;dashPattern=1 4;strokeWidth=1;rounded=0;fontSize=12;startSize=8;endSize=8;curved=1;exitX=1;exitY=0.5;exitDx=0;exitDy=0;entryX=0;entryY=0.5;entryDx=0;entryDy=0;sketch=1;curveFitting=1;jiggle=2;" parent="vQRRSYV09fOpZdYklut7-53" source="fWuZ5FwQuB-bUipdS1Gb-2" target="fWuZ5FwQuB-bUipdS1Gb-20" edge="1">
          <mxGeometry width="50" height="50" relative="1" as="geometry">
            <mxPoint x="640.6779661016949" y="185.26315789473682" as="sourcePoint" />
            <mxPoint x="694.0677966101694" y="132.63157894736844" as="targetPoint" />
          </mxGeometry>
        </mxCell>
        <mxCell id="fWuZ5FwQuB-bUipdS1Gb-23" style="edgeStyle=none;curved=1;rounded=0;orthogonalLoop=1;jettySize=auto;html=1;exitX=1;exitY=0.5;exitDx=0;exitDy=0;entryX=0;entryY=0.5;entryDx=0;entryDy=0;fontSize=12;startSize=8;endSize=8;endArrow=none;startFill=0;dashed=1;dashPattern=1 4;strokeWidth=1;sketch=1;curveFitting=1;jiggle=2;" parent="vQRRSYV09fOpZdYklut7-53" source="fWuZ5FwQuB-bUipdS1Gb-4" target="fWuZ5FwQuB-bUipdS1Gb-22" edge="1">
          <mxGeometry relative="1" as="geometry" />
        </mxCell>
        <mxCell id="fWuZ5FwQuB-bUipdS1Gb-44" style="edgeStyle=none;curved=1;rounded=0;orthogonalLoop=1;jettySize=auto;html=1;exitX=1;exitY=0.5;exitDx=0;exitDy=0;entryX=0;entryY=0.5;entryDx=0;entryDy=0;fontSize=12;startSize=8;endSize=8;endArrow=none;startFill=0;dashed=1;dashPattern=1 4;strokeWidth=1;sketch=1;curveFitting=1;jiggle=2;" parent="vQRRSYV09fOpZdYklut7-53" source="fWuZ5FwQuB-bUipdS1Gb-5" target="fWuZ5FwQuB-bUipdS1Gb-41" edge="1">
          <mxGeometry relative="1" as="geometry" />
        </mxCell>
        <mxCell id="fWuZ5FwQuB-bUipdS1Gb-45" style="edgeStyle=none;curved=1;rounded=0;orthogonalLoop=1;jettySize=auto;html=1;entryX=0;entryY=0.5;entryDx=0;entryDy=0;fontSize=12;startSize=8;endSize=8;endArrow=none;startFill=0;dashed=1;dashPattern=1 4;strokeWidth=1;sketch=1;curveFitting=1;jiggle=2;" parent="vQRRSYV09fOpZdYklut7-53" source="fWuZ5FwQuB-bUipdS1Gb-6" target="fWuZ5FwQuB-bUipdS1Gb-42" edge="1">
          <mxGeometry relative="1" as="geometry" />
        </mxCell>
        <mxCell id="fWuZ5FwQuB-bUipdS1Gb-46" style="edgeStyle=none;curved=1;rounded=0;orthogonalLoop=1;jettySize=auto;html=1;entryX=0;entryY=0.5;entryDx=0;entryDy=0;fontSize=12;startSize=8;endSize=8;endArrow=none;startFill=0;dashed=1;dashPattern=1 4;strokeWidth=1;sketch=1;curveFitting=1;jiggle=2;" parent="vQRRSYV09fOpZdYklut7-53" source="fWuZ5FwQuB-bUipdS1Gb-18" target="fWuZ5FwQuB-bUipdS1Gb-43" edge="1">
          <mxGeometry relative="1" as="geometry" />
        </mxCell>
        <mxCell id="fWuZ5FwQuB-bUipdS1Gb-49" value="" style="endArrow=none;html=1;rounded=0;fontSize=12;startSize=8;endSize=8;curved=1;sketch=1;curveFitting=1;jiggle=2;" parent="vQRRSYV09fOpZdYklut7-53" edge="1">
          <mxGeometry width="50" height="50" relative="1" as="geometry">
            <mxPoint x="85.42372881355931" y="48.42105263157896" as="sourcePoint" />
            <mxPoint x="1195.9322033898306" y="48.42105263157896" as="targetPoint" />
          </mxGeometry>
        </mxCell>
        <mxCell id="fWuZ5FwQuB-bUipdS1Gb-50" value="" style="endArrow=none;html=1;rounded=0;fontSize=12;startSize=8;endSize=8;curved=1;sketch=1;curveFitting=1;jiggle=2;" parent="vQRRSYV09fOpZdYklut7-53" edge="1">
          <mxGeometry width="50" height="50" relative="1" as="geometry">
            <mxPoint x="171" y="400" as="sourcePoint" />
            <mxPoint x="170.84745762711862" y="16.84210526315792" as="targetPoint" />
          </mxGeometry>
        </mxCell>
        <mxCell id="fWuZ5FwQuB-bUipdS1Gb-52" value="Checkout" style="text;html=1;align=center;verticalAlign=middle;whiteSpace=wrap;rounded=0;container=0;fontSize=14;fontStyle=1;fontFamily=Comic Sans MS;" parent="vQRRSYV09fOpZdYklut7-53" vertex="1">
          <mxGeometry x="85.42372881355931" y="16.84210526315792" width="85.42372881355932" height="31.57894736842105" as="geometry" />
        </mxCell>
        <mxCell id="fWuZ5FwQuB-bUipdS1Gb-53" value="Branches" style="text;html=1;align=center;verticalAlign=middle;whiteSpace=wrap;rounded=0;container=0;fontSize=14;fontStyle=1;fontFamily=Comic Sans MS;" parent="vQRRSYV09fOpZdYklut7-53" vertex="1">
          <mxGeometry x="170.84745762711862" y="16.84210526315792" width="576.6101694915254" height="31.57894736842105" as="geometry" />
        </mxCell>
        <mxCell id="fWuZ5FwQuB-bUipdS1Gb-55" value="PR inicial" style="text;html=1;align=center;verticalAlign=middle;whiteSpace=wrap;rounded=0;container=0;fontSize=14;fontStyle=1;fontFamily=Comic Sans MS;" parent="vQRRSYV09fOpZdYklut7-53" vertex="1">
          <mxGeometry x="747.457627118644" y="16.84210526315792" width="106.77966101694916" height="31.57894736842105" as="geometry" />
        </mxCell>
        <mxCell id="fWuZ5FwQuB-bUipdS1Gb-56" value="" style="endArrow=none;html=1;strokeWidth=1;rounded=0;fontSize=12;startSize=8;endSize=8;curved=1;entryX=1;entryY=0;entryDx=0;entryDy=0;sketch=1;curveFitting=1;jiggle=2;" parent="vQRRSYV09fOpZdYklut7-53" edge="1">
          <mxGeometry width="50" height="50" relative="1" as="geometry">
            <mxPoint x="854" y="400" as="sourcePoint" />
            <mxPoint x="854.2372881355932" y="16.84210526315792" as="targetPoint" />
          </mxGeometry>
        </mxCell>
        <mxCell id="fWuZ5FwQuB-bUipdS1Gb-70" style="edgeStyle=orthogonalEdgeStyle;rounded=0;orthogonalLoop=1;jettySize=auto;html=1;entryX=0.5;entryY=1;entryDx=0;entryDy=0;endArrow=classic;startFill=0;fillColor=#e1d5e7;strokeColor=#9673a6;endFill=1;sketch=1;curveFitting=1;jiggle=2;" parent="vQRRSYV09fOpZdYklut7-53" source="fWuZ5FwQuB-bUipdS1Gb-58" target="fWuZ5FwQuB-bUipdS1Gb-64" edge="1">
          <mxGeometry relative="1" as="geometry" />
        </mxCell>
        <mxCell id="fWuZ5FwQuB-bUipdS1Gb-131" value="merge" style="edgeLabel;html=1;align=center;verticalAlign=middle;resizable=0;points=[];container=0;" parent="fWuZ5FwQuB-bUipdS1Gb-70" vertex="1" connectable="0">
          <mxGeometry x="-0.4696" y="-1" relative="1" as="geometry">
            <mxPoint x="-4" y="-3" as="offset" />
          </mxGeometry>
        </mxCell>
        <mxCell id="fWuZ5FwQuB-bUipdS1Gb-58" value="" style="ellipse;whiteSpace=wrap;html=1;aspect=fixed;fillColor=#e1d5e7;strokeColor=#9673a6;container=0;sketch=1;curveFitting=1;jiggle=2;" parent="vQRRSYV09fOpZdYklut7-53" vertex="1">
          <mxGeometry x="896.9491525423728" y="243.15789473684208" width="25.263157894736842" height="25.263157894736842" as="geometry" />
        </mxCell>
        <mxCell id="fWuZ5FwQuB-bUipdS1Gb-115" style="edgeStyle=orthogonalEdgeStyle;rounded=0;orthogonalLoop=1;jettySize=auto;html=1;entryX=0.5;entryY=1;entryDx=0;entryDy=0;endArrow=classic;startFill=0;fillColor=#e1d5e7;strokeColor=#9673a6;endFill=1;sketch=1;curveFitting=1;jiggle=2;" parent="vQRRSYV09fOpZdYklut7-53" source="fWuZ5FwQuB-bUipdS1Gb-59" target="fWuZ5FwQuB-bUipdS1Gb-113" edge="1">
          <mxGeometry relative="1" as="geometry" />
        </mxCell>
        <mxCell id="fWuZ5FwQuB-bUipdS1Gb-132" value="merge" style="edgeLabel;html=1;align=center;verticalAlign=middle;resizable=0;points=[];container=0;" parent="fWuZ5FwQuB-bUipdS1Gb-115" vertex="1" connectable="0">
          <mxGeometry x="-0.8172" y="1" relative="1" as="geometry">
            <mxPoint as="offset" />
          </mxGeometry>
        </mxCell>
        <mxCell id="fWuZ5FwQuB-bUipdS1Gb-59" value="" style="ellipse;whiteSpace=wrap;html=1;aspect=fixed;fillColor=#e1d5e7;strokeColor=#9673a6;container=0;sketch=1;curveFitting=1;jiggle=2;" parent="vQRRSYV09fOpZdYklut7-53" vertex="1">
          <mxGeometry x="896.9491525423728" y="295.7894736842105" width="25.263157894736842" height="25.263157894736842" as="geometry" />
        </mxCell>
        <mxCell id="fWuZ5FwQuB-bUipdS1Gb-116" style="edgeStyle=orthogonalEdgeStyle;rounded=0;orthogonalLoop=1;jettySize=auto;html=1;entryX=0.5;entryY=1;entryDx=0;entryDy=0;endArrow=classic;startFill=0;fillColor=#e1d5e7;strokeColor=#9673a6;endFill=1;sketch=1;curveFitting=1;jiggle=2;" parent="vQRRSYV09fOpZdYklut7-53" source="fWuZ5FwQuB-bUipdS1Gb-60" target="fWuZ5FwQuB-bUipdS1Gb-114" edge="1">
          <mxGeometry relative="1" as="geometry" />
        </mxCell>
        <mxCell id="fWuZ5FwQuB-bUipdS1Gb-133" value="merge" style="edgeLabel;html=1;align=center;verticalAlign=middle;resizable=0;points=[];container=0;" parent="fWuZ5FwQuB-bUipdS1Gb-116" vertex="1" connectable="0">
          <mxGeometry x="-0.8533" y="2" relative="1" as="geometry">
            <mxPoint x="-4" y="1" as="offset" />
          </mxGeometry>
        </mxCell>
        <mxCell id="fWuZ5FwQuB-bUipdS1Gb-60" value="" style="ellipse;whiteSpace=wrap;html=1;aspect=fixed;fillColor=#e1d5e7;strokeColor=#9673a6;container=0;sketch=1;curveFitting=1;jiggle=2;" parent="vQRRSYV09fOpZdYklut7-53" vertex="1">
          <mxGeometry x="896.9491525423728" y="348.4210526315789" width="25.263157894736842" height="25.263157894736842" as="geometry" />
        </mxCell>
        <mxCell id="fWuZ5FwQuB-bUipdS1Gb-117" style="edgeStyle=orthogonalEdgeStyle;rounded=0;orthogonalLoop=1;jettySize=auto;html=1;entryX=0;entryY=0.5;entryDx=0;entryDy=0;endArrow=none;startFill=0;dashed=1;dashPattern=1 4;" parent="vQRRSYV09fOpZdYklut7-53" source="fWuZ5FwQuB-bUipdS1Gb-64" target="fWuZ5FwQuB-bUipdS1Gb-113" edge="1">
          <mxGeometry relative="1" as="geometry" />
        </mxCell>
        <mxCell id="fWuZ5FwQuB-bUipdS1Gb-64" value="" style="ellipse;whiteSpace=wrap;html=1;aspect=fixed;fillColor=#d5e8d4;strokeColor=#82b366;container=0;sketch=1;curveFitting=1;jiggle=2;" parent="vQRRSYV09fOpZdYklut7-53" vertex="1">
          <mxGeometry x="950.3389830508474" y="190.52631578947364" width="25.263157894736842" height="25.263157894736842" as="geometry" />
        </mxCell>
        <mxCell id="fWuZ5FwQuB-bUipdS1Gb-69" value="Commit e merges" style="text;html=1;align=center;verticalAlign=middle;whiteSpace=wrap;rounded=0;container=0;fontSize=14;fontStyle=1;fontFamily=Comic Sans MS;" parent="vQRRSYV09fOpZdYklut7-53" vertex="1">
          <mxGeometry x="854.24" y="16.839999999999975" width="335.76" height="31.58" as="geometry" />
        </mxCell>
        <mxCell id="fWuZ5FwQuB-bUipdS1Gb-118" style="edgeStyle=orthogonalEdgeStyle;rounded=0;orthogonalLoop=1;jettySize=auto;html=1;entryX=0;entryY=0.5;entryDx=0;entryDy=0;dashed=1;dashPattern=1 4;endArrow=none;startFill=0;" parent="vQRRSYV09fOpZdYklut7-53" source="fWuZ5FwQuB-bUipdS1Gb-113" target="fWuZ5FwQuB-bUipdS1Gb-114" edge="1">
          <mxGeometry relative="1" as="geometry" />
        </mxCell>
        <mxCell id="fWuZ5FwQuB-bUipdS1Gb-113" value="" style="ellipse;whiteSpace=wrap;html=1;aspect=fixed;fillColor=#d5e8d4;strokeColor=#82b366;container=0;sketch=1;curveFitting=1;jiggle=2;" parent="vQRRSYV09fOpZdYklut7-53" vertex="1">
          <mxGeometry x="1003.7288135593221" y="190.52631578947364" width="25.263157894736842" height="25.263157894736842" as="geometry" />
        </mxCell>
        <mxCell id="fWuZ5FwQuB-bUipdS1Gb-136" style="edgeStyle=orthogonalEdgeStyle;rounded=0;orthogonalLoop=1;jettySize=auto;html=1;entryX=0.5;entryY=1;entryDx=0;entryDy=0;fillColor=#d5e8d4;strokeColor=#82b366;sketch=1;curveFitting=1;jiggle=2;" parent="vQRRSYV09fOpZdYklut7-53" source="fWuZ5FwQuB-bUipdS1Gb-114" target="fWuZ5FwQuB-bUipdS1Gb-134" edge="1">
          <mxGeometry relative="1" as="geometry" />
        </mxCell>
        <mxCell id="fWuZ5FwQuB-bUipdS1Gb-114" value="" style="ellipse;whiteSpace=wrap;html=1;aspect=fixed;fillColor=#d5e8d4;strokeColor=#82b366;container=0;sketch=1;curveFitting=1;jiggle=2;" parent="vQRRSYV09fOpZdYklut7-53" vertex="1">
          <mxGeometry x="1057.1186440677966" y="190.52631578947364" width="25.263157894736842" height="25.263157894736842" as="geometry" />
        </mxCell>
        <mxCell id="fWuZ5FwQuB-bUipdS1Gb-139" style="edgeStyle=orthogonalEdgeStyle;rounded=0;orthogonalLoop=1;jettySize=auto;html=1;entryX=0.5;entryY=1;entryDx=0;entryDy=0;fillColor=#f5f5f5;strokeColor=#666666;sketch=1;curveFitting=1;jiggle=2;" parent="vQRRSYV09fOpZdYklut7-53" source="fWuZ5FwQuB-bUipdS1Gb-134" target="fWuZ5FwQuB-bUipdS1Gb-137" edge="1">
          <mxGeometry relative="1" as="geometry" />
        </mxCell>
        <mxCell id="fWuZ5FwQuB-bUipdS1Gb-134" value="" style="ellipse;whiteSpace=wrap;html=1;aspect=fixed;fillColor=#f5f5f5;fontColor=#333333;strokeColor=#666666;container=0;sketch=1;curveFitting=1;jiggle=2;" parent="vQRRSYV09fOpZdYklut7-53" vertex="1">
          <mxGeometry x="1099.8305084745764" y="137.89473684210526" width="25.263157894736842" height="25.263157894736842" as="geometry" />
        </mxCell>
        <mxCell id="fWuZ5FwQuB-bUipdS1Gb-137" value="" style="ellipse;whiteSpace=wrap;html=1;aspect=fixed;fillColor=#dae8fc;strokeColor=#6c8ebf;container=0;sketch=1;curveFitting=1;jiggle=2;" parent="vQRRSYV09fOpZdYklut7-53" vertex="1">
          <mxGeometry x="1142.542372881356" y="85.26315789473682" width="25.263157894736842" height="25.263157894736842" as="geometry" />
        </mxCell>
        <mxCell id="vQRRSYV09fOpZdYklut7-109" value="" style="group" parent="1" vertex="1" connectable="0">
          <mxGeometry x="80" y="-80" width="1260" height="430" as="geometry" />
        </mxCell>
        <mxCell id="vQRRSYV09fOpZdYklut7-166" value="" style="group" parent="vQRRSYV09fOpZdYklut7-109" vertex="1" connectable="0">
          <mxGeometry width="1260" height="320" as="geometry" />
        </mxCell>
        <mxCell id="vQRRSYV09fOpZdYklut7-110" value="&lt;font face=&quot;Comic Sans MS&quot; style=&quot;font-size: 18px;&quot;&gt;Gitflow - &lt;span style=&quot;font-weight: normal;&quot;&gt;Exemplo bug&lt;/span&gt;&lt;/font&gt;" style="swimlane;horizontal=0;whiteSpace=wrap;html=1;rounded=1;glass=0;shadow=0;gradientColor=none;swimlaneFillColor=#FFFFFF;container=0;sketch=1;curveFitting=1;jiggle=2;startSize=40;arcSize=13;" parent="vQRRSYV09fOpZdYklut7-166" vertex="1">
          <mxGeometry width="1260" height="320" as="geometry" />
        </mxCell>
        <mxCell id="vQRRSYV09fOpZdYklut7-111" style="edgeStyle=orthogonalEdgeStyle;rounded=0;orthogonalLoop=1;jettySize=auto;html=1;entryX=0;entryY=0.25;entryDx=0;entryDy=0;exitX=0;exitY=0.75;exitDx=0;exitDy=0;fillColor=#dae8fc;strokeColor=#6c8ebf;sketch=1;curveFitting=1;jiggle=2;" parent="vQRRSYV09fOpZdYklut7-166" source="vQRRSYV09fOpZdYklut7-112" target="vQRRSYV09fOpZdYklut7-114" edge="1">
          <mxGeometry relative="1" as="geometry">
            <Array as="points">
              <mxPoint x="160.16949152542372" y="107.36842105263156" />
              <mxPoint x="160.16949152542372" y="142.10526315789474" />
            </Array>
          </mxGeometry>
        </mxCell>
        <mxCell id="vQRRSYV09fOpZdYklut7-112" value="v_00.01.001" style="rounded=1;whiteSpace=wrap;html=1;fillColor=#dae8fc;strokeColor=#6c8ebf;align=center;container=0;sketch=1;curveFitting=1;jiggle=2;" parent="vQRRSYV09fOpZdYklut7-166" vertex="1">
          <mxGeometry x="184.72881355932202" y="80" width="128.135593220339" height="35.78947368421053" as="geometry" />
        </mxCell>
        <mxCell id="vQRRSYV09fOpZdYklut7-113" style="edgeStyle=orthogonalEdgeStyle;rounded=0;orthogonalLoop=1;jettySize=auto;html=1;entryX=0;entryY=0.25;entryDx=0;entryDy=0;exitX=0;exitY=0.75;exitDx=0;exitDy=0;fillColor=#f5f5f5;strokeColor=#666666;sketch=1;curveFitting=1;jiggle=2;" parent="vQRRSYV09fOpZdYklut7-166" source="vQRRSYV09fOpZdYklut7-114" target="vQRRSYV09fOpZdYklut7-118" edge="1">
          <mxGeometry relative="1" as="geometry">
            <Array as="points">
              <mxPoint x="160.16949152542372" y="158.9473684210526" />
              <mxPoint x="160.16949152542372" y="194.73684210526312" />
            </Array>
          </mxGeometry>
        </mxCell>
        <mxCell id="vQRRSYV09fOpZdYklut7-114" value="r_00.01.001" style="rounded=1;whiteSpace=wrap;html=1;fillColor=#f5f5f5;strokeColor=#666666;fontColor=#333333;align=center;container=0;sketch=1;curveFitting=1;jiggle=2;" parent="vQRRSYV09fOpZdYklut7-166" vertex="1">
          <mxGeometry x="184.72881355932202" y="132.63157894736844" width="128.135593220339" height="35.78947368421053" as="geometry" />
        </mxCell>
        <mxCell id="vQRRSYV09fOpZdYklut7-115" style="edgeStyle=orthogonalEdgeStyle;rounded=0;orthogonalLoop=1;jettySize=auto;html=1;entryX=0;entryY=0.25;entryDx=0;entryDy=0;exitX=0;exitY=0.75;exitDx=0;exitDy=0;fillColor=#f8cecc;strokeColor=#b85450;sketch=1;curveFitting=1;jiggle=2;" parent="vQRRSYV09fOpZdYklut7-166" source="vQRRSYV09fOpZdYklut7-118" target="vQRRSYV09fOpZdYklut7-119" edge="1">
          <mxGeometry relative="1" as="geometry">
            <Array as="points">
              <mxPoint x="160.16949152542372" y="212.63157894736844" />
              <mxPoint x="160.16949152542372" y="247.36842105263156" />
            </Array>
          </mxGeometry>
        </mxCell>
        <mxCell id="vQRRSYV09fOpZdYklut7-118" value="&lt;span style=&quot;font-family: Helvetica, Arial, freesans, sans-serif; font-size: 13px;&quot;&gt;&lt;font style=&quot;color: light-dark(rgb(188, 190, 196), rgb(255, 255, 255));&quot;&gt;Bug/GlobalException&lt;/font&gt;&lt;/span&gt;" style="rounded=1;whiteSpace=wrap;html=1;fillColor=#f8cecc;strokeColor=#b85450;align=center;container=0;sketch=1;curveFitting=1;jiggle=2;" parent="vQRRSYV09fOpZdYklut7-166" vertex="1">
          <mxGeometry x="184.72881355932202" y="185.26315789473682" width="331.0169491525424" height="35.78947368421053" as="geometry" />
        </mxCell>
        <mxCell id="vQRRSYV09fOpZdYklut7-119" value="&lt;span style=&quot;font-family: Helvetica, Arial, freesans, sans-serif; font-size: 13px;&quot;&gt;&lt;font style=&quot;color: light-dark(rgb(188, 190, 196), rgb(255, 255, 255));&quot;&gt;&amp;nbsp;&lt;/font&gt;&lt;/span&gt;&lt;span style=&quot;font-family: Helvetica, Arial, freesans, sans-serif; font-size: 13px;&quot;&gt;Pamela.Cristina/&lt;/span&gt;&lt;span style=&quot;font-family: Helvetica, Arial, freesans, sans-serif; font-size: 13px;&quot;&gt;20250202-1435&lt;/span&gt;&lt;span style=&quot;font-family: Helvetica, Arial, freesans, sans-serif; font-size: 13px;&quot;&gt;/&lt;/span&gt;&lt;span style=&quot;font-family: Helvetica, Arial, freesans, sans-serif; font-size: 13px;&quot;&gt;BACK/&lt;/span&gt;&lt;span style=&quot;font-family: Helvetica, Arial, freesans, sans-serif; font-size: 13px;&quot;&gt;&lt;font style=&quot;color: light-dark(rgb(188, 190, 196), rgb(255, 255, 255));&quot;&gt;Bug/GlobalException&lt;/font&gt;&lt;/span&gt;" style="rounded=1;whiteSpace=wrap;html=1;fillColor=#e1d5e7;strokeColor=#9673a6;align=left;container=0;sketch=1;curveFitting=1;jiggle=2;" parent="vQRRSYV09fOpZdYklut7-166" vertex="1">
          <mxGeometry x="184.72881355932202" y="237.89473684210526" width="555.2542372881356" height="35.78947368421053" as="geometry" />
        </mxCell>
        <mxCell id="vQRRSYV09fOpZdYklut7-122" value="" style="endArrow=none;html=1;strokeWidth=1;rounded=0;fontSize=12;startSize=8;endSize=8;curved=1;entryX=1;entryY=0;entryDx=0;entryDy=0;sketch=1;curveFitting=1;jiggle=2;" parent="vQRRSYV09fOpZdYklut7-166" target="vQRRSYV09fOpZdYklut7-144" edge="1">
          <mxGeometry width="50" height="50" relative="1" as="geometry">
            <mxPoint x="750" y="300" as="sourcePoint" />
            <mxPoint x="747.457627118644" y="27.36842105263156" as="targetPoint" />
          </mxGeometry>
        </mxCell>
        <mxCell id="vQRRSYV09fOpZdYklut7-127" style="edgeStyle=none;curved=1;rounded=0;orthogonalLoop=1;jettySize=auto;html=1;entryX=0;entryY=0.5;entryDx=0;entryDy=0;fontSize=12;startSize=8;endSize=8;endArrow=none;startFill=0;dashed=1;dashPattern=1 4;sketch=1;curveFitting=1;jiggle=2;" parent="vQRRSYV09fOpZdYklut7-166" source="vQRRSYV09fOpZdYklut7-128" target="vQRRSYV09fOpZdYklut7-149" edge="1">
          <mxGeometry relative="1" as="geometry" />
        </mxCell>
        <mxCell id="vQRRSYV09fOpZdYklut7-128" value="" style="ellipse;whiteSpace=wrap;html=1;aspect=fixed;fillColor=#e1d5e7;strokeColor=#9673a6;container=0;sketch=1;curveFitting=1;jiggle=2;" parent="vQRRSYV09fOpZdYklut7-166" vertex="1">
          <mxGeometry x="788.0338983050847" y="243.15789473684208" width="25.263157894736842" height="25.263157894736842" as="geometry" />
        </mxCell>
        <mxCell id="vQRRSYV09fOpZdYklut7-129" style="edgeStyle=none;curved=1;rounded=0;orthogonalLoop=1;jettySize=auto;html=1;entryX=0;entryY=0.5;entryDx=0;entryDy=0;fontSize=12;startSize=8;endSize=8;endArrow=none;startFill=0;dashed=1;dashPattern=1 4;sketch=1;curveFitting=1;jiggle=2;" parent="vQRRSYV09fOpZdYklut7-166" source="vQRRSYV09fOpZdYklut7-130" target="vQRRSYV09fOpZdYklut7-157" edge="1">
          <mxGeometry relative="1" as="geometry" />
        </mxCell>
        <mxCell id="vQRRSYV09fOpZdYklut7-130" value="" style="ellipse;whiteSpace=wrap;html=1;aspect=fixed;fillColor=#f8cecc;strokeColor=#b85450;container=0;sketch=1;curveFitting=1;jiggle=2;" parent="vQRRSYV09fOpZdYklut7-166" vertex="1">
          <mxGeometry x="788.0338983050847" y="190.52631578947364" width="25.263157894736842" height="25.263157894736842" as="geometry" />
        </mxCell>
        <mxCell id="vQRRSYV09fOpZdYklut7-131" style="edgeStyle=orthogonalEdgeStyle;rounded=0;orthogonalLoop=1;jettySize=auto;html=1;entryX=0;entryY=0.5;entryDx=0;entryDy=0;endArrow=none;startFill=0;dashed=1;dashPattern=1 4;sketch=1;curveFitting=1;jiggle=2;" parent="vQRRSYV09fOpZdYklut7-166" source="vQRRSYV09fOpZdYklut7-132" target="vQRRSYV09fOpZdYklut7-164" edge="1">
          <mxGeometry relative="1" as="geometry" />
        </mxCell>
        <mxCell id="vQRRSYV09fOpZdYklut7-132" value="" style="ellipse;whiteSpace=wrap;html=1;aspect=fixed;fillColor=#f5f5f5;fontColor=#333333;strokeColor=#666666;container=0;sketch=1;curveFitting=1;jiggle=2;" parent="vQRRSYV09fOpZdYklut7-166" vertex="1">
          <mxGeometry x="788.0338983050847" y="137.89473684210526" width="25.263157894736842" height="25.263157894736842" as="geometry" />
        </mxCell>
        <mxCell id="vQRRSYV09fOpZdYklut7-133" style="edgeStyle=orthogonalEdgeStyle;rounded=0;orthogonalLoop=1;jettySize=auto;html=1;entryX=0;entryY=0.5;entryDx=0;entryDy=0;endArrow=none;startFill=0;dashed=1;dashPattern=1 4;sketch=1;curveFitting=1;jiggle=2;" parent="vQRRSYV09fOpZdYklut7-166" source="vQRRSYV09fOpZdYklut7-134" target="vQRRSYV09fOpZdYklut7-165" edge="1">
          <mxGeometry relative="1" as="geometry" />
        </mxCell>
        <mxCell id="vQRRSYV09fOpZdYklut7-134" value="" style="ellipse;whiteSpace=wrap;html=1;aspect=fixed;fillColor=#dae8fc;strokeColor=#6c8ebf;container=0;sketch=1;curveFitting=1;jiggle=2;" parent="vQRRSYV09fOpZdYklut7-166" vertex="1">
          <mxGeometry x="788.0338983050847" y="85.26315789473682" width="25.263157894736842" height="25.263157894736842" as="geometry" />
        </mxCell>
        <mxCell id="vQRRSYV09fOpZdYklut7-135" style="edgeStyle=none;curved=1;rounded=0;orthogonalLoop=1;jettySize=auto;html=1;entryX=0;entryY=0.5;entryDx=0;entryDy=0;fontSize=12;startSize=8;endSize=8;endArrow=none;startFill=0;dashed=1;dashPattern=1 4;strokeWidth=1;sketch=1;curveFitting=1;jiggle=2;" parent="vQRRSYV09fOpZdYklut7-166" source="vQRRSYV09fOpZdYklut7-112" target="vQRRSYV09fOpZdYklut7-134" edge="1">
          <mxGeometry relative="1" as="geometry" />
        </mxCell>
        <mxCell id="vQRRSYV09fOpZdYklut7-136" value="" style="endArrow=none;dashed=1;html=1;dashPattern=1 4;strokeWidth=1;rounded=0;fontSize=12;startSize=8;endSize=8;curved=1;exitX=1;exitY=0.5;exitDx=0;exitDy=0;entryX=0;entryY=0.5;entryDx=0;entryDy=0;sketch=1;curveFitting=1;jiggle=2;" parent="vQRRSYV09fOpZdYklut7-166" source="vQRRSYV09fOpZdYklut7-114" target="vQRRSYV09fOpZdYklut7-132" edge="1">
          <mxGeometry width="50" height="50" relative="1" as="geometry">
            <mxPoint x="640.6779661016949" y="185.26315789473682" as="sourcePoint" />
            <mxPoint x="694.0677966101694" y="132.63157894736844" as="targetPoint" />
          </mxGeometry>
        </mxCell>
        <mxCell id="vQRRSYV09fOpZdYklut7-137" style="edgeStyle=none;curved=1;rounded=0;orthogonalLoop=1;jettySize=auto;html=1;exitX=1;exitY=0.5;exitDx=0;exitDy=0;entryX=0;entryY=0.5;entryDx=0;entryDy=0;fontSize=12;startSize=8;endSize=8;endArrow=none;startFill=0;dashed=1;dashPattern=1 4;strokeWidth=1;sketch=1;curveFitting=1;jiggle=2;" parent="vQRRSYV09fOpZdYklut7-166" source="vQRRSYV09fOpZdYklut7-118" target="vQRRSYV09fOpZdYklut7-130" edge="1">
          <mxGeometry relative="1" as="geometry" />
        </mxCell>
        <mxCell id="vQRRSYV09fOpZdYklut7-138" style="edgeStyle=none;curved=1;rounded=0;orthogonalLoop=1;jettySize=auto;html=1;exitX=1;exitY=0.5;exitDx=0;exitDy=0;entryX=0;entryY=0.5;entryDx=0;entryDy=0;fontSize=12;startSize=8;endSize=8;endArrow=none;startFill=0;dashed=1;dashPattern=1 4;strokeWidth=1;sketch=1;curveFitting=1;jiggle=2;" parent="vQRRSYV09fOpZdYklut7-166" source="vQRRSYV09fOpZdYklut7-119" target="vQRRSYV09fOpZdYklut7-128" edge="1">
          <mxGeometry relative="1" as="geometry" />
        </mxCell>
        <mxCell id="vQRRSYV09fOpZdYklut7-141" value="" style="endArrow=none;html=1;rounded=0;fontSize=12;startSize=8;endSize=8;curved=1;sketch=1;curveFitting=1;jiggle=2;" parent="vQRRSYV09fOpZdYklut7-166" edge="1">
          <mxGeometry width="50" height="50" relative="1" as="geometry">
            <mxPoint x="85.42372881355931" y="48.42105263157896" as="sourcePoint" />
            <mxPoint x="1195.9322033898306" y="48.42105263157896" as="targetPoint" />
          </mxGeometry>
        </mxCell>
        <mxCell id="vQRRSYV09fOpZdYklut7-142" value="" style="endArrow=none;html=1;rounded=0;fontSize=12;startSize=8;endSize=8;curved=1;sketch=1;curveFitting=1;jiggle=2;" parent="vQRRSYV09fOpZdYklut7-166" edge="1">
          <mxGeometry width="50" height="50" relative="1" as="geometry">
            <mxPoint x="170" y="300" as="sourcePoint" />
            <mxPoint x="170.84745762711862" y="16.84210526315792" as="targetPoint" />
          </mxGeometry>
        </mxCell>
        <mxCell id="vQRRSYV09fOpZdYklut7-143" value="Checkout" style="text;html=1;align=center;verticalAlign=middle;whiteSpace=wrap;rounded=0;container=0;fontSize=14;fontStyle=1;fontFamily=Comic Sans MS;" parent="vQRRSYV09fOpZdYklut7-166" vertex="1">
          <mxGeometry x="85.42372881355931" y="16.84210526315792" width="85.42372881355932" height="31.57894736842105" as="geometry" />
        </mxCell>
        <mxCell id="vQRRSYV09fOpZdYklut7-144" value="Branches" style="text;html=1;align=center;verticalAlign=middle;whiteSpace=wrap;rounded=0;container=0;fontSize=14;fontStyle=1;fontFamily=Comic Sans MS;" parent="vQRRSYV09fOpZdYklut7-166" vertex="1">
          <mxGeometry x="170.84745762711862" y="16.84210526315792" width="576.6101694915254" height="31.57894736842105" as="geometry" />
        </mxCell>
        <mxCell id="vQRRSYV09fOpZdYklut7-145" value="PR inicial" style="text;html=1;align=center;verticalAlign=middle;whiteSpace=wrap;rounded=0;container=0;fontSize=14;fontStyle=1;fontFamily=Comic Sans MS;" parent="vQRRSYV09fOpZdYklut7-166" vertex="1">
          <mxGeometry x="747.457627118644" y="16.84210526315792" width="106.77966101694916" height="31.57894736842105" as="geometry" />
        </mxCell>
        <mxCell id="vQRRSYV09fOpZdYklut7-146" value="" style="endArrow=none;html=1;strokeWidth=1;rounded=0;fontSize=12;startSize=8;endSize=8;curved=1;entryX=1;entryY=0;entryDx=0;entryDy=0;sketch=1;curveFitting=1;jiggle=2;" parent="vQRRSYV09fOpZdYklut7-166" edge="1">
          <mxGeometry width="50" height="50" relative="1" as="geometry">
            <mxPoint x="854" y="300" as="sourcePoint" />
            <mxPoint x="854.2372881355932" y="16.84210526315792" as="targetPoint" />
          </mxGeometry>
        </mxCell>
        <mxCell id="vQRRSYV09fOpZdYklut7-147" style="edgeStyle=orthogonalEdgeStyle;rounded=0;orthogonalLoop=1;jettySize=auto;html=1;entryX=0.5;entryY=1;entryDx=0;entryDy=0;endArrow=classic;startFill=0;fillColor=#e1d5e7;strokeColor=#9673a6;endFill=1;sketch=1;curveFitting=1;jiggle=2;" parent="vQRRSYV09fOpZdYklut7-166" source="vQRRSYV09fOpZdYklut7-149" target="vQRRSYV09fOpZdYklut7-157" edge="1">
          <mxGeometry relative="1" as="geometry" />
        </mxCell>
        <mxCell id="vQRRSYV09fOpZdYklut7-148" value="merge" style="edgeLabel;html=1;align=center;verticalAlign=middle;resizable=0;points=[];container=0;" parent="vQRRSYV09fOpZdYklut7-147" vertex="1" connectable="0">
          <mxGeometry x="-0.4696" y="-1" relative="1" as="geometry">
            <mxPoint x="-4" y="-3" as="offset" />
          </mxGeometry>
        </mxCell>
        <mxCell id="vQRRSYV09fOpZdYklut7-149" value="" style="ellipse;whiteSpace=wrap;html=1;aspect=fixed;fillColor=#e1d5e7;strokeColor=#9673a6;container=0;sketch=1;curveFitting=1;jiggle=2;" parent="vQRRSYV09fOpZdYklut7-166" vertex="1">
          <mxGeometry x="896.9491525423728" y="243.15789473684208" width="25.263157894736842" height="25.263157894736842" as="geometry" />
        </mxCell>
        <mxCell id="vQRRSYV09fOpZdYklut7-157" value="" style="ellipse;whiteSpace=wrap;html=1;aspect=fixed;fillColor=#f8cecc;strokeColor=#b85450;container=0;sketch=1;curveFitting=1;jiggle=2;" parent="vQRRSYV09fOpZdYklut7-166" vertex="1">
          <mxGeometry x="950.3389830508474" y="190.52631578947364" width="25.263157894736842" height="25.263157894736842" as="geometry" />
        </mxCell>
        <mxCell id="vQRRSYV09fOpZdYklut7-158" value="Commit e merges" style="text;html=1;align=center;verticalAlign=middle;whiteSpace=wrap;rounded=0;container=0;fontSize=14;fontStyle=1;fontFamily=Comic Sans MS;" parent="vQRRSYV09fOpZdYklut7-166" vertex="1">
          <mxGeometry x="854.24" y="16.839999999999975" width="335.76" height="31.58" as="geometry" />
        </mxCell>
        <mxCell id="vQRRSYV09fOpZdYklut7-161" style="edgeStyle=orthogonalEdgeStyle;rounded=0;orthogonalLoop=1;jettySize=auto;html=1;entryX=0.5;entryY=1;entryDx=0;entryDy=0;fillColor=#f8cecc;strokeColor=#b85450;sketch=1;curveFitting=1;jiggle=2;exitX=1;exitY=0.5;exitDx=0;exitDy=0;" parent="vQRRSYV09fOpZdYklut7-166" source="vQRRSYV09fOpZdYklut7-157" target="vQRRSYV09fOpZdYklut7-164" edge="1">
          <mxGeometry relative="1" as="geometry">
            <mxPoint x="1082.381772114722" y="203.13043478260897" as="sourcePoint" />
          </mxGeometry>
        </mxCell>
        <mxCell id="vQRRSYV09fOpZdYklut7-163" style="edgeStyle=orthogonalEdgeStyle;rounded=0;orthogonalLoop=1;jettySize=auto;html=1;entryX=0.5;entryY=1;entryDx=0;entryDy=0;fillColor=#f5f5f5;strokeColor=#666666;sketch=1;curveFitting=1;jiggle=2;" parent="vQRRSYV09fOpZdYklut7-166" source="vQRRSYV09fOpZdYklut7-164" target="vQRRSYV09fOpZdYklut7-165" edge="1">
          <mxGeometry relative="1" as="geometry" />
        </mxCell>
        <mxCell id="vQRRSYV09fOpZdYklut7-164" value="" style="ellipse;whiteSpace=wrap;html=1;aspect=fixed;fillColor=#f5f5f5;fontColor=#333333;strokeColor=#666666;container=0;sketch=1;curveFitting=1;jiggle=2;" parent="vQRRSYV09fOpZdYklut7-166" vertex="1">
          <mxGeometry x="1099.8305084745764" y="137.89473684210526" width="25.263157894736842" height="25.263157894736842" as="geometry" />
        </mxCell>
        <mxCell id="vQRRSYV09fOpZdYklut7-165" value="" style="ellipse;whiteSpace=wrap;html=1;aspect=fixed;fillColor=#dae8fc;strokeColor=#6c8ebf;container=0;sketch=1;curveFitting=1;jiggle=2;" parent="vQRRSYV09fOpZdYklut7-166" vertex="1">
          <mxGeometry x="1142.542372881356" y="85.26315789473682" width="25.263157894736842" height="25.263157894736842" as="geometry" />
        </mxCell>
        <mxCell id="3LQVrjWZMvgl_4kximQ7-1" value="Tipos de slide" style="swimlane;horizontal=0;whiteSpace=wrap;html=1;" parent="1" vertex="1">
          <mxGeometry x="1680" y="-1120" width="800" height="530" as="geometry" />
        </mxCell>
        <mxCell id="3LQVrjWZMvgl_4kximQ7-3" value="&lt;blockquote style=&quot;margin: 0 0 0 40px; border: none; padding: 0px;&quot;&gt;&lt;h1 style=&quot;margin-top: 0px;&quot;&gt;slide_title_1&lt;/h1&gt;&lt;p&gt;{&lt;/p&gt;&lt;p&gt;&amp;nbsp; &quot;type&quot;: &quot;slide_title_1&quot;,&lt;/p&gt;&lt;p&gt;&amp;nbsp; &quot;contentTitle&quot;: &quot;&quot;&lt;/p&gt;&lt;p&gt;}&lt;/p&gt;&lt;/blockquote&gt;" style="text;html=1;whiteSpace=wrap;overflow=hidden;rounded=1;fillColor=#dae8fc;strokeColor=#6c8ebf;sketch=1;curveFitting=1;jiggle=2;glass=0;align=left;" parent="3LQVrjWZMvgl_4kximQ7-1" vertex="1">
          <mxGeometry x="40" y="10" width="220" height="150" as="geometry" />
        </mxCell>
        <mxCell id="3LQVrjWZMvgl_4kximQ7-4" value="&lt;blockquote style=&quot;margin: 0 0 0 40px; border: none; padding: 0px;&quot;&gt;&lt;h1 style=&quot;margin-top: 0px;&quot;&gt;slide_title_2&lt;/h1&gt;&lt;p&gt;{&lt;/p&gt;&lt;p&gt;&amp;nbsp; &quot;type&quot;: &quot;slide_title_2&quot;,&lt;/p&gt;&lt;p&gt;&amp;nbsp; &quot;contentTitle&quot;: &quot;&quot;,&lt;/p&gt;&lt;p&gt;&amp;nbsp; &quot;contentDescription&quot;: &quot;&quot;&lt;/p&gt;&lt;p&gt;}&lt;/p&gt;&lt;/blockquote&gt;" style="text;html=1;whiteSpace=wrap;overflow=hidden;rounded=1;fillColor=#dae8fc;strokeColor=#6c8ebf;sketch=1;curveFitting=1;jiggle=2;glass=0;align=left;" parent="3LQVrjWZMvgl_4kximQ7-1" vertex="1">
          <mxGeometry x="40" y="170" width="220" height="180" as="geometry" />
        </mxCell>
        <mxCell id="3LQVrjWZMvgl_4kximQ7-5" value="&lt;blockquote style=&quot;margin: 0 0 0 40px; border: none; padding: 0px;&quot;&gt;&lt;h1 style=&quot;margin-top: 0px;&quot;&gt;slide_text_1&lt;/h1&gt;&lt;p&gt;{&lt;/p&gt;&lt;p&gt;&amp;nbsp; &quot;type&quot;: &quot;slide_text_1&quot;,&lt;/p&gt;&lt;p&gt;&amp;nbsp; &quot;contentHeader&quot;: &quot;&quot;,&lt;/p&gt;&lt;p&gt;&amp;nbsp; &quot;contentSubHeaderOne&quot;: &quot;&quot;,&lt;/p&gt;&lt;p&gt;&amp;nbsp; &quot;contentTextOne&quot;: &quot;&quot;&lt;/p&gt;&lt;p&gt;}&lt;/p&gt;&lt;/blockquote&gt;" style="text;html=1;whiteSpace=wrap;overflow=hidden;rounded=1;fillColor=#d5e8d4;strokeColor=#82b366;sketch=1;curveFitting=1;jiggle=2;glass=0;align=left;" parent="3LQVrjWZMvgl_4kximQ7-1" vertex="1">
          <mxGeometry x="270" y="10" width="220" height="210" as="geometry" />
        </mxCell>
        <mxCell id="3LQVrjWZMvgl_4kximQ7-6" value="&lt;blockquote style=&quot;margin: 0 0 0 40px; border: none; padding: 0px;&quot;&gt;&lt;h1 style=&quot;margin-top: 0px;&quot;&gt;slide_text_2&lt;/h1&gt;&lt;p&gt;{&lt;/p&gt;&lt;p&gt;&amp;nbsp; &quot;type&quot;: &quot;slide_text_2&quot;,&lt;/p&gt;&lt;p&gt;&amp;nbsp; &quot;contentHeader&quot;: &quot;&quot;,&lt;/p&gt;&lt;p&gt;&amp;nbsp; &quot;contentSubHeaderOne&quot;: &quot;&quot;,&lt;/p&gt;&lt;p&gt;&amp;nbsp; &quot;contentTextOne&quot;: &quot;&quot;,&lt;/p&gt;&lt;p&gt;&amp;nbsp; &quot;contentSubHeaderTwo&quot;: &quot;&quot;,&lt;/p&gt;&lt;p&gt;&amp;nbsp; &quot;contentTextTwo&quot;: &quot;&quot;&lt;/p&gt;&lt;p&gt;}&lt;/p&gt;&lt;/blockquote&gt;" style="text;html=1;whiteSpace=wrap;overflow=hidden;rounded=1;fillColor=#d5e8d4;strokeColor=#82b366;sketch=1;curveFitting=1;jiggle=2;glass=0;align=left;" parent="3LQVrjWZMvgl_4kximQ7-1" vertex="1">
          <mxGeometry x="270" y="230" width="220" height="260" as="geometry" />
        </mxCell>
        <mxCell id="3LQVrjWZMvgl_4kximQ7-7" value="&lt;blockquote style=&quot;margin: 0 0 0 40px; border: none; padding: 0px;&quot;&gt;&lt;h1 style=&quot;margin-top: 0px;&quot;&gt;slide_text_media_1&lt;/h1&gt;&lt;p&gt;{&lt;/p&gt;&lt;p&gt;&amp;nbsp; &quot;type&quot;: &quot;slide_text_media_1&quot;,&lt;/p&gt;&lt;p&gt;&amp;nbsp; &quot;contentHeader&quot;: &quot;&quot;,&lt;/p&gt;&lt;p&gt;&amp;nbsp; &quot;contentTextOne&quot;: &quot;&quot;,&lt;/p&gt;&lt;p&gt;&amp;nbsp; &quot;contentMediaOne&quot;: &quot;&quot;&lt;/p&gt;&lt;p&gt;}&lt;/p&gt;&lt;/blockquote&gt;" style="text;html=1;whiteSpace=wrap;overflow=hidden;rounded=1;fillColor=#ffe6cc;strokeColor=#d79b00;sketch=1;curveFitting=1;jiggle=2;glass=0;align=left;" parent="3LQVrjWZMvgl_4kximQ7-1" vertex="1">
          <mxGeometry x="500" y="10" width="290" height="210" as="geometry" />
        </mxCell>
        <mxCell id="3LQVrjWZMvgl_4kximQ7-8" value="&lt;blockquote style=&quot;margin: 0 0 0 40px; border: none; padding: 0px;&quot;&gt;&lt;h1 style=&quot;margin-top: 0px;&quot;&gt;slide_text_media_2&lt;/h1&gt;&lt;p&gt;{&lt;/p&gt;&lt;p&gt;&amp;nbsp; &quot;type&quot;: &quot;slide_text_media_2&quot;,&lt;/p&gt;&lt;p&gt;&amp;nbsp; &quot;contentSubHeaderOne&quot;: &quot;&quot;,&lt;/p&gt;&lt;p&gt;&amp;nbsp; &quot;contentTextOne&quot;: &quot;&quot;,&lt;/p&gt;&lt;p&gt;&amp;nbsp; &quot;contentMediaOne&quot;: &quot;&quot;,&lt;/p&gt;&lt;p&gt;&amp;nbsp; &quot;contentSubHeaderTwo&quot;: &quot;&quot;,&lt;/p&gt;&lt;p&gt;&amp;nbsp; &quot;contentTextTwo&quot;: &quot;&quot;,&lt;/p&gt;&lt;p&gt;&amp;nbsp; &quot;contentMediaTwo&quot;: &quot;&quot;&lt;/p&gt;&lt;p&gt;}&lt;/p&gt;&lt;/blockquote&gt;" style="text;html=1;whiteSpace=wrap;overflow=hidden;rounded=1;fillColor=#ffe6cc;strokeColor=#d79b00;sketch=1;curveFitting=1;jiggle=2;glass=0;align=left;" parent="3LQVrjWZMvgl_4kximQ7-1" vertex="1">
          <mxGeometry x="500" y="230" width="290" height="290" as="geometry" />
        </mxCell>
        <mxCell id="3LQVrjWZMvgl_4kximQ7-9" value="Tipos de Quiz" style="swimlane;horizontal=0;whiteSpace=wrap;html=1;" parent="1" vertex="1">
          <mxGeometry x="1680" y="-560" width="800" height="890" as="geometry" />
        </mxCell>
        <mxCell id="3LQVrjWZMvgl_4kximQ7-10" value="&lt;blockquote style=&quot;margin: 0 0 0 40px; border: none; padding: 0px;&quot;&gt;&lt;h1 style=&quot;margin-top: 0px;&quot;&gt;quiz_multiple_choise&lt;/h1&gt;&lt;p&gt;{&lt;/p&gt;&lt;p&gt;&amp;nbsp; &quot;id&quot;: &quot;&quot;,&lt;/p&gt;&lt;p&gt;&amp;nbsp; &quot;tipo&quot;: &quot;quiz_multiple_choise&quot;,&lt;/p&gt;&lt;p&gt;&amp;nbsp; &quot;contentQuestion&quot;: &quot;&quot;,&lt;/p&gt;&lt;p&gt;&amp;nbsp; &quot;alternatives&quot;: [],&lt;/p&gt;&lt;p&gt;&amp;nbsp; &quot;answer&quot;: [],&lt;/p&gt;&lt;p&gt;&amp;nbsp; &quot;timerSeconds&quot;: 0,&lt;/p&gt;&lt;p&gt;&amp;nbsp; &quot;reward&quot;: 0&lt;/p&gt;&lt;p&gt;}&lt;/p&gt;&lt;/blockquote&gt;" style="text;html=1;whiteSpace=wrap;overflow=hidden;rounded=1;fillColor=#dae8fc;strokeColor=#6c8ebf;sketch=1;curveFitting=1;jiggle=2;glass=0;align=left;" parent="3LQVrjWZMvgl_4kximQ7-9" vertex="1">
          <mxGeometry x="40" y="10" width="320" height="290" as="geometry" />
        </mxCell>
        <mxCell id="3LQVrjWZMvgl_4kximQ7-11" value="&lt;blockquote style=&quot;margin: 0 0 0 40px; border: none; padding: 0px;&quot;&gt;&lt;h1 style=&quot;margin-top: 0px;&quot;&gt;quiz_fill_space&lt;/h1&gt;&lt;p&gt;{&lt;/p&gt;&lt;p&gt;&amp;nbsp; &quot;id&quot;: &quot;&quot;,&lt;/p&gt;&lt;p&gt;&amp;nbsp; &quot;type&quot;: &quot;quiz_fill_space&quot;,&lt;/p&gt;&lt;p&gt;&amp;nbsp; &quot;contentQuestion&quot;: &quot;&quot;,&lt;/p&gt;&lt;p&gt;&amp;nbsp; &quot;answer&quot;: [],&lt;/p&gt;&lt;p&gt;&amp;nbsp; &quot;timerSeconds&quot;: 0,&lt;/p&gt;&lt;p&gt;&amp;nbsp; &quot;reward&quot;: 0&lt;/p&gt;&lt;p&gt;}&lt;/p&gt;&lt;/blockquote&gt;" style="text;html=1;whiteSpace=wrap;overflow=hidden;rounded=1;fillColor=#dae8fc;strokeColor=#6c8ebf;sketch=1;curveFitting=1;jiggle=2;glass=0;align=left;" parent="3LQVrjWZMvgl_4kximQ7-9" vertex="1">
          <mxGeometry x="370" y="8.419999999999959" width="320" height="260" as="geometry" />
        </mxCell>
        <mxCell id="3LQVrjWZMvgl_4kximQ7-12" value="&lt;blockquote style=&quot;margin: 0 0 0 40px; border: none; padding: 0px;&quot;&gt;&lt;h1 style=&quot;margin-top: 0px;&quot;&gt;quiz_true_false&lt;/h1&gt;&lt;p&gt;{&lt;/p&gt;&lt;p&gt;&amp;nbsp; &quot;id&quot;: &quot;&quot;,&lt;/p&gt;&lt;p&gt;&amp;nbsp; &quot;type&quot;: &quot;quiz_true_false&quot;,&lt;/p&gt;&lt;p&gt;&amp;nbsp; &quot;contentQuestion&quot;: &quot;&quot;,&lt;/p&gt;&lt;p&gt;&amp;nbsp; &quot;answer&quot;: true,&lt;/p&gt;&lt;p&gt;&amp;nbsp; &quot;timerSeconds&quot;: 0,&lt;/p&gt;&lt;p&gt;&amp;nbsp; &quot;reward&quot;: 0&lt;/p&gt;&lt;p&gt;}&lt;/p&gt;&lt;/blockquote&gt;" style="text;html=1;whiteSpace=wrap;overflow=hidden;rounded=1;fillColor=#dae8fc;strokeColor=#6c8ebf;sketch=1;curveFitting=1;jiggle=2;glass=0;align=left;" parent="3LQVrjWZMvgl_4kximQ7-9" vertex="1">
          <mxGeometry x="40" y="330" width="260" height="260" as="geometry" />
        </mxCell>
        <mxCell id="3LQVrjWZMvgl_4kximQ7-13" value="&lt;blockquote style=&quot;margin: 0 0 0 40px; border: none; padding: 0px;&quot;&gt;&lt;h1 style=&quot;margin-top: 0px;&quot;&gt;quiz_open&lt;/h1&gt;&lt;p&gt;{&lt;/p&gt;&lt;p&gt;&amp;nbsp; &quot;id&quot;: &quot;&quot;,&lt;/p&gt;&lt;p&gt;&amp;nbsp; &quot;type&quot;: &quot;quiz_open&quot;,&lt;/p&gt;&lt;p&gt;&amp;nbsp; &quot;contentQuestion&quot;: &quot;&quot;,&lt;/p&gt;&lt;p&gt;&amp;nbsp; &quot;quantityCharacters&quot;: 0,&lt;/p&gt;&lt;p&gt;&amp;nbsp; &quot;answer&quot;: &quot;&quot;,&lt;/p&gt;&lt;p&gt;&amp;nbsp; &quot;timerSeconds&quot;: 0,&lt;/p&gt;&lt;p&gt;&amp;nbsp; &quot;reward&quot;: 0&lt;/p&gt;&lt;p&gt;}&lt;/p&gt;&lt;/blockquote&gt;" style="text;html=1;whiteSpace=wrap;overflow=hidden;rounded=1;fillColor=#e1d5e7;strokeColor=#9673a6;sketch=1;curveFitting=1;jiggle=2;glass=0;align=left;" parent="3LQVrjWZMvgl_4kximQ7-9" vertex="1">
          <mxGeometry x="310" y="340" width="200" height="290" as="geometry" />
        </mxCell>
        <mxCell id="3LQVrjWZMvgl_4kximQ7-14" value="&lt;blockquote style=&quot;margin: 0 0 0 40px; border: none; padding: 0px;&quot;&gt;&lt;h1 style=&quot;margin-top: 0px;&quot;&gt;quiz_poll&lt;/h1&gt;&lt;p&gt;{&lt;/p&gt;&lt;p&gt;&amp;nbsp; &quot;id&quot;: &quot;&quot;,&lt;/p&gt;&lt;p&gt;&amp;nbsp; &quot;tipo&quot;: &quot;quiz_poll&quot;,&lt;/p&gt;&lt;p&gt;&amp;nbsp; &quot;contentQuestion&quot;: &quot;&quot;,&lt;/p&gt;&lt;p&gt;&amp;nbsp; &quot;alternatives&quot;: [],&lt;/p&gt;&lt;p&gt;&amp;nbsp; &quot;answer&quot;: [],&lt;/p&gt;&lt;p&gt;&amp;nbsp; &quot;timerSeconds&quot;: 0&lt;/p&gt;&lt;p&gt;}&lt;/p&gt;&lt;/blockquote&gt;" style="text;html=1;whiteSpace=wrap;overflow=hidden;rounded=1;fillColor=#d5e8d4;strokeColor=#82b366;sketch=1;curveFitting=1;jiggle=2;glass=0;align=left;" parent="3LQVrjWZMvgl_4kximQ7-9" vertex="1">
          <mxGeometry x="520" y="340" width="200" height="270" as="geometry" />
        </mxCell>
        <mxCell id="3LQVrjWZMvgl_4kximQ7-15" value="&lt;blockquote style=&quot;margin: 0 0 0 40px; border: none; padding: 0px;&quot;&gt;&lt;h1 style=&quot;margin-top: 0px;&quot;&gt;quiz_word_cloud&lt;/h1&gt;&lt;p&gt;{&lt;/p&gt;&lt;p&gt;&amp;nbsp; &quot;tipo&quot;: &quot;quiz_word_cloud&quot;,&lt;/p&gt;&lt;p&gt;&amp;nbsp; &quot;contentQuestion&quot;: &quot;&quot;,&lt;/p&gt;&lt;p&gt;&amp;nbsp; &quot;quantityCharacters&quot;: 0,&lt;/p&gt;&lt;p&gt;&amp;nbsp; &quot;timerSeconds&quot;: 0&lt;/p&gt;&lt;p&gt;}&lt;/p&gt;&lt;/blockquote&gt;" style="text;html=1;whiteSpace=wrap;overflow=hidden;rounded=1;fillColor=#d5e8d4;strokeColor=#82b366;sketch=1;curveFitting=1;jiggle=2;glass=0;align=left;" parent="3LQVrjWZMvgl_4kximQ7-9" vertex="1">
          <mxGeometry x="40" y="640" width="280" height="240" as="geometry" />
        </mxCell>
        <mxCell id="3LQVrjWZMvgl_4kximQ7-16" value="Json game" style="swimlane;horizontal=0;whiteSpace=wrap;html=1;" parent="1" vertex="1">
          <mxGeometry x="1680" y="350" width="800" height="2080" as="geometry" />
        </mxCell>
        <mxCell id="3LQVrjWZMvgl_4kximQ7-17" value="&lt;blockquote style=&quot;margin: 0 0 0 40px; border: none; padding: 0px;&quot;&gt;&lt;h1 style=&quot;margin-top: 0px;&quot;&gt;Jason Game&lt;/h1&gt;&lt;p&gt;{&lt;/p&gt;&lt;p&gt;&amp;nbsp; &quot;classId&quot;: &quot;&quot;,&lt;/p&gt;&lt;p&gt;&amp;nbsp; &quot;status&quot;: &quot;&quot;,&amp;nbsp;&lt;/p&gt;&lt;p&gt;&amp;nbsp; &quot;lobby&quot;: {&lt;/p&gt;&lt;p&gt;&amp;nbsp; &amp;nbsp; &quot;active&quot;: true,&lt;/p&gt;&lt;p&gt;&amp;nbsp; &amp;nbsp; &quot;attendees&quot;: [&quot;pupil_1&quot;]&lt;/p&gt;&lt;p&gt;&amp;nbsp; },&lt;/p&gt;&lt;p&gt;&amp;nbsp; &quot;teacher&quot;: {&lt;/p&gt;&lt;p&gt;&amp;nbsp; &amp;nbsp; &quot;id&quot;: &quot;&quot;,&lt;/p&gt;&lt;p&gt;&amp;nbsp; &amp;nbsp; &quot;name&quot;: &quot;&quot;,&lt;/p&gt;&lt;p&gt;&amp;nbsp; &amp;nbsp; &quot;currentControl&quot;: {&lt;/p&gt;&lt;p&gt;&amp;nbsp; &amp;nbsp; &amp;nbsp; &quot;currentBlock&quot;: 0,&lt;/p&gt;&lt;p&gt;&amp;nbsp; &amp;nbsp; &amp;nbsp; &quot;type&quot;: &quot;&quot;&lt;/p&gt;&lt;p&gt;&amp;nbsp; &amp;nbsp; }&lt;/p&gt;&lt;p&gt;&amp;nbsp; },&lt;/p&gt;&lt;p&gt;&amp;nbsp; &quot;students&quot;: {&lt;/p&gt;&lt;p&gt;&amp;nbsp; &amp;nbsp; &quot;pupil_1&quot;: {&lt;/p&gt;&lt;p&gt;&amp;nbsp; &amp;nbsp; &amp;nbsp; &quot;name&quot;: &quot;&quot;,&lt;/p&gt;&lt;p&gt;&amp;nbsp; &amp;nbsp; &amp;nbsp; &quot;present&quot;: true,&lt;/p&gt;&lt;p&gt;&amp;nbsp; &amp;nbsp; &amp;nbsp; &quot;answers&quot;: {&lt;/p&gt;&lt;p&gt;&amp;nbsp; &amp;nbsp; &amp;nbsp; &amp;nbsp; &quot;3&quot;: {&lt;/p&gt;&lt;p&gt;&amp;nbsp; &amp;nbsp; &amp;nbsp; &amp;nbsp; &amp;nbsp; &quot;answer&quot;: &quot;&quot;,&lt;/p&gt;&lt;p&gt;&amp;nbsp; &amp;nbsp; &amp;nbsp; &amp;nbsp; &amp;nbsp; &quot;hit&quot;: true&lt;/p&gt;&lt;p&gt;&amp;nbsp; &amp;nbsp; &amp;nbsp; &amp;nbsp; }&lt;/p&gt;&lt;p&gt;&amp;nbsp; &amp;nbsp; &amp;nbsp; },&lt;/p&gt;&lt;p&gt;&amp;nbsp; &amp;nbsp; &amp;nbsp; &quot;responseTimeSeconds&quot;: 0&lt;/p&gt;&lt;p&gt;&amp;nbsp; &amp;nbsp; }&lt;/p&gt;&lt;p&gt;&amp;nbsp; },&lt;/p&gt;&lt;p&gt;&amp;nbsp; &quot;block&quot;: [&lt;/p&gt;&lt;p&gt;&amp;nbsp; &amp;nbsp; &amp;nbsp; {&lt;/p&gt;&lt;p&gt;&amp;nbsp; &amp;nbsp; &amp;nbsp; &amp;nbsp; &quot;id&quot;: 1,&lt;/p&gt;&lt;p&gt;&amp;nbsp; &amp;nbsp; &amp;nbsp; &amp;nbsp; &quot;plan&quot;: {&lt;/p&gt;&lt;p&gt;&amp;nbsp; &amp;nbsp; &amp;nbsp; &amp;nbsp; &amp;nbsp; &quot;type&quot;: &quot;slide_title_1&quot;,&lt;/p&gt;&lt;p&gt;&amp;nbsp; &amp;nbsp; &amp;nbsp; &amp;nbsp; &amp;nbsp; &quot;contentTitle&quot;: &quot;&quot;&lt;/p&gt;&lt;p&gt;&amp;nbsp; &amp;nbsp; &amp;nbsp; &amp;nbsp; },&lt;/p&gt;&lt;p&gt;&amp;nbsp; &amp;nbsp; &amp;nbsp; &amp;nbsp; &quot;status&quot;: &quot;&quot;&lt;/p&gt;&lt;p&gt;&amp;nbsp; &amp;nbsp; &amp;nbsp; },&lt;/p&gt;&lt;p&gt;&amp;nbsp; &amp;nbsp; &amp;nbsp; {&lt;/p&gt;&lt;p&gt;&amp;nbsp; &amp;nbsp; &amp;nbsp; &amp;nbsp; &quot;id&quot;: 2,&lt;/p&gt;&lt;p&gt;&amp;nbsp; &amp;nbsp; &amp;nbsp; &amp;nbsp; &quot;plan&quot;: {&lt;/p&gt;&lt;p&gt;&amp;nbsp; &amp;nbsp; &amp;nbsp; &amp;nbsp; &amp;nbsp; &quot;type&quot;: &quot;slide_title_2&quot;,&lt;/p&gt;&lt;p&gt;&amp;nbsp; &amp;nbsp; &amp;nbsp; &amp;nbsp; &amp;nbsp; &quot;contentTitle&quot;: &quot;&quot;,&lt;/p&gt;&lt;p&gt;&amp;nbsp; &amp;nbsp; &amp;nbsp; &amp;nbsp; &amp;nbsp; &quot;contentDescription&quot;: &quot;&quot;&lt;/p&gt;&lt;p&gt;&amp;nbsp; &amp;nbsp; &amp;nbsp; &amp;nbsp; },&lt;/p&gt;&lt;p&gt;&amp;nbsp; &amp;nbsp; &amp;nbsp; &amp;nbsp; &quot;status&quot;: &quot;&quot;&lt;/p&gt;&lt;p&gt;&amp;nbsp; &amp;nbsp; &amp;nbsp; },&lt;/p&gt;&lt;p&gt;&amp;nbsp; &amp;nbsp; &amp;nbsp; {&lt;/p&gt;&lt;p&gt;&amp;nbsp; &amp;nbsp; &amp;nbsp; &amp;nbsp; &quot;id&quot;: 3,&lt;/p&gt;&lt;p&gt;&amp;nbsp; &amp;nbsp; &amp;nbsp; &amp;nbsp; &quot;plan&quot;: {&lt;/p&gt;&lt;p&gt;&amp;nbsp; &amp;nbsp; &amp;nbsp; &amp;nbsp; &amp;nbsp; &quot;tipo&quot;: &quot;quiz_multiple_choise&quot;,&lt;/p&gt;&lt;p&gt;&amp;nbsp; &amp;nbsp; &amp;nbsp; &amp;nbsp; &amp;nbsp; &quot;contentQuestion&quot;: &quot;&quot;,&lt;/p&gt;&lt;p&gt;&amp;nbsp; &amp;nbsp; &amp;nbsp; &amp;nbsp; &amp;nbsp; &quot;alternatives&quot;: [],&lt;/p&gt;&lt;p&gt;&amp;nbsp; &amp;nbsp; &amp;nbsp; &amp;nbsp; &amp;nbsp; &quot;answer&quot;: [],&lt;/p&gt;&lt;p&gt;&amp;nbsp; &amp;nbsp; &amp;nbsp; &amp;nbsp; &amp;nbsp; &quot;timerSeconds&quot;: 0,&lt;/p&gt;&lt;p&gt;&amp;nbsp; &amp;nbsp; &amp;nbsp; &amp;nbsp; &amp;nbsp; &quot;recompensa&quot;: 0&lt;/p&gt;&lt;p&gt;&amp;nbsp; &amp;nbsp; &amp;nbsp; &amp;nbsp; },&lt;/p&gt;&lt;p&gt;&amp;nbsp; &amp;nbsp; &amp;nbsp; &amp;nbsp; &quot;responsesReceived&quot;: {&lt;/p&gt;&lt;p&gt;&amp;nbsp; &amp;nbsp; &amp;nbsp; &amp;nbsp; &amp;nbsp; &quot;pupil_1&quot;: &quot;&quot;&lt;/p&gt;&lt;p&gt;&amp;nbsp; &amp;nbsp; &amp;nbsp; &amp;nbsp; },&lt;/p&gt;&lt;p&gt;&amp;nbsp; &amp;nbsp; &amp;nbsp; &amp;nbsp; &quot;responseTimeQuiz&quot;: 0,&lt;/p&gt;&lt;p&gt;&amp;nbsp; &amp;nbsp; &amp;nbsp; &amp;nbsp; &quot;status&quot;: &quot;&quot;&lt;/p&gt;&lt;p&gt;&amp;nbsp; &amp;nbsp; &amp;nbsp; }&lt;/p&gt;&lt;p&gt;&amp;nbsp; ],&lt;/p&gt;&lt;p&gt;&amp;nbsp; &quot;engagement&quot;: {&lt;/p&gt;&lt;p&gt;&amp;nbsp; &amp;nbsp; &quot;totalParticipantes&quot;: 0,&lt;/p&gt;&lt;p&gt;&amp;nbsp; &amp;nbsp; &quot;correctAnswers&quot;: 0,&lt;/p&gt;&lt;p&gt;&amp;nbsp; &amp;nbsp; &quot;totalAnswers&quot;: 0,&lt;/p&gt;&lt;p&gt;&amp;nbsp; &amp;nbsp; &quot;averageResponseTimeSeconds&quot;: 0,&lt;/p&gt;&lt;p&gt;&amp;nbsp; &amp;nbsp; &quot;participacaoPercentual&quot;: 0&lt;/p&gt;&lt;p&gt;&amp;nbsp; },&lt;/p&gt;&lt;p&gt;&amp;nbsp; &quot;startedOn&quot;: &quot;2025-04-05T14:30:00Z&quot;,&lt;/p&gt;&lt;p&gt;&amp;nbsp; &quot;updateOn&quot;: &quot;2025-04-05T14:35:12Z&quot;,&lt;/p&gt;&lt;p&gt;&amp;nbsp; &quot;completedOn&quot;: &quot;&quot;&lt;/p&gt;&lt;p&gt;}&lt;/p&gt;&lt;/blockquote&gt;" style="text;html=1;whiteSpace=wrap;overflow=hidden;rounded=1;sketch=1;curveFitting=1;jiggle=2;fillColor=#f5f5f5;fontColor=#333333;strokeColor=#666666;" parent="3LQVrjWZMvgl_4kximQ7-16" vertex="1">
          <mxGeometry x="60" y="30" width="700" height="2030" as="geometry" />
        </mxCell>
        <mxCell id="3LQVrjWZMvgl_4kximQ7-18" value="Vertical Container" style="swimlane;whiteSpace=wrap;html=1;" parent="1" vertex="1">
          <mxGeometry x="2520" y="-1120" width="760" height="1370" as="geometry" />
        </mxCell>
        <mxCell id="3LQVrjWZMvgl_4kximQ7-19" value="&lt;h1 style=&quot;margin-top: 0px;&quot;&gt;slide&lt;/h1&gt;&lt;p&gt;[&lt;/p&gt;&lt;p&gt;&amp;nbsp; {&lt;/p&gt;&lt;p&gt;&amp;nbsp; &amp;nbsp; &quot;type&quot;: &quot;slide_title_1&quot;,&lt;/p&gt;&lt;p&gt;&amp;nbsp; &amp;nbsp; &quot;contentTitle&quot;: &quot;&quot;&lt;/p&gt;&lt;p&gt;&amp;nbsp; },&lt;/p&gt;&lt;p&gt;&amp;nbsp; {&lt;/p&gt;&lt;p&gt;&amp;nbsp; &amp;nbsp; &quot;type&quot;: &quot;slide_title_2&quot;,&lt;/p&gt;&lt;p&gt;&amp;nbsp; &amp;nbsp; &quot;contentTitle&quot;: &quot;&quot;,&lt;/p&gt;&lt;p&gt;&amp;nbsp; &amp;nbsp; &quot;contentDescription&quot;: &quot;&quot;&lt;/p&gt;&lt;p&gt;&amp;nbsp; },&lt;/p&gt;&lt;p&gt;&amp;nbsp; {&lt;/p&gt;&lt;p&gt;&amp;nbsp; &amp;nbsp; &quot;type&quot;: &quot;slide_text_1&quot;,&lt;/p&gt;&lt;p&gt;&amp;nbsp; &amp;nbsp; &quot;contentHeader&quot;: &quot;&quot;,&lt;/p&gt;&lt;p&gt;&amp;nbsp; &amp;nbsp; &quot;contentSubHeaderOne&quot;: &quot;&quot;,&lt;/p&gt;&lt;p&gt;&amp;nbsp; &amp;nbsp; &quot;contentTextOne&quot;: &quot;&quot;&lt;/p&gt;&lt;p&gt;&amp;nbsp; },&lt;/p&gt;&lt;p&gt;&amp;nbsp; {&lt;/p&gt;&lt;p&gt;&amp;nbsp; &amp;nbsp; &quot;type&quot;: &quot;slide_text_2&quot;,&lt;/p&gt;&lt;p&gt;&amp;nbsp; &amp;nbsp; &quot;contentHeader&quot;: &quot;&quot;,&lt;/p&gt;&lt;p&gt;&amp;nbsp; &amp;nbsp; &quot;contentSubHeaderOne&quot;: &quot;&quot;,&lt;/p&gt;&lt;p&gt;&amp;nbsp; &amp;nbsp; &quot;contentTextOne&quot;: &quot;&quot;,&lt;/p&gt;&lt;p&gt;&amp;nbsp; &amp;nbsp; &quot;contentSubHeaderTwo&quot;: &quot;&quot;,&lt;/p&gt;&lt;p&gt;&amp;nbsp; &amp;nbsp; &quot;contentTextTwo&quot;: &quot;&quot;&lt;/p&gt;&lt;p&gt;&amp;nbsp; },&lt;/p&gt;&lt;p&gt;&amp;nbsp; {&lt;/p&gt;&lt;p&gt;&amp;nbsp; &amp;nbsp; &quot;type&quot;: &quot;slide_text_media_1&quot;,&lt;/p&gt;&lt;p&gt;&amp;nbsp; &amp;nbsp; &quot;contentHeader&quot;: &quot;&quot;,&lt;/p&gt;&lt;p&gt;&amp;nbsp; &amp;nbsp; &quot;contentTextOne&quot;: &quot;&quot;,&lt;/p&gt;&lt;p&gt;&amp;nbsp; &amp;nbsp; &quot;contentMediaOne&quot;: &quot;&quot;&lt;/p&gt;&lt;p&gt;&amp;nbsp; },&lt;/p&gt;&lt;p&gt;&amp;nbsp; {&lt;/p&gt;&lt;p&gt;&amp;nbsp; &amp;nbsp; &quot;type&quot;: &quot;slide_text_media_2&quot;,&lt;/p&gt;&lt;p&gt;&amp;nbsp; &amp;nbsp; &quot;contentSubHeaderOne&quot;: &quot;&quot;,&lt;/p&gt;&lt;p&gt;&amp;nbsp; &amp;nbsp; &quot;contentTextOne&quot;: &quot;&quot;,&lt;/p&gt;&lt;p&gt;&amp;nbsp; &amp;nbsp; &quot;contentMediaOne&quot;: &quot;&quot;,&lt;/p&gt;&lt;p&gt;&amp;nbsp; &amp;nbsp; &quot;contentSubHeaderTwo&quot;: &quot;&quot;,&lt;/p&gt;&lt;p&gt;&amp;nbsp; &amp;nbsp; &quot;contentTextTwo&quot;: &quot;&quot;,&lt;/p&gt;&lt;p&gt;&amp;nbsp; &amp;nbsp; &quot;contentMediaTwo&quot;: &quot;&quot;&lt;/p&gt;&lt;p&gt;&amp;nbsp; }&lt;/p&gt;&lt;p&gt;]&lt;/p&gt;" style="text;html=1;whiteSpace=wrap;overflow=hidden;rounded=0;fillColor=#dae8fc;strokeColor=#6c8ebf;" parent="3LQVrjWZMvgl_4kximQ7-18" vertex="1">
          <mxGeometry x="40" y="40" width="200" height="1110" as="geometry" />
        </mxCell>
        <mxCell id="3LQVrjWZMvgl_4kximQ7-20" value="&lt;h1 style=&quot;margin-top: 0px;&quot;&gt;quiz&lt;/h1&gt;&lt;p&gt;[&lt;/p&gt;&lt;p&gt;&amp;nbsp; {&lt;/p&gt;&lt;p&gt;&amp;nbsp; &amp;nbsp; &quot;tipo&quot;: &quot;quiz_multiple_choise&quot;,&lt;/p&gt;&lt;p&gt;&amp;nbsp; &amp;nbsp; &quot;contentQuestion&quot;: &quot;&quot;,&lt;/p&gt;&lt;p&gt;&amp;nbsp; &amp;nbsp; &quot;alternatives&quot;: [],&lt;/p&gt;&lt;p&gt;&amp;nbsp; &amp;nbsp; &quot;answer&quot;: [],&lt;/p&gt;&lt;p&gt;&amp;nbsp; &amp;nbsp; &quot;timerSeconds&quot;: 0,&lt;/p&gt;&lt;p&gt;&amp;nbsp; &amp;nbsp; &quot;reward&quot;: 0&lt;/p&gt;&lt;p&gt;&amp;nbsp; },&lt;/p&gt;&lt;p&gt;&amp;nbsp; {&lt;/p&gt;&lt;p&gt;&amp;nbsp; &amp;nbsp; &quot;type&quot;: &quot;quiz_fill_space&quot;,&lt;/p&gt;&lt;p&gt;&amp;nbsp; &amp;nbsp; &quot;contentQuestion&quot;: &quot;&quot;,&lt;/p&gt;&lt;p&gt;&amp;nbsp; &amp;nbsp; &quot;answer&quot;: [],&lt;/p&gt;&lt;p&gt;&amp;nbsp; &amp;nbsp; &quot;timerSeconds&quot;: 0,&lt;/p&gt;&lt;p&gt;&amp;nbsp; &amp;nbsp; &quot;reward&quot;: 0&lt;/p&gt;&lt;p&gt;&amp;nbsp; },&lt;/p&gt;&lt;p&gt;&amp;nbsp; {&lt;/p&gt;&lt;p&gt;&amp;nbsp; &amp;nbsp; &quot;type&quot;: &quot;quiz_true_false&quot;,&lt;/p&gt;&lt;p&gt;&amp;nbsp; &amp;nbsp; &quot;contentQuestion&quot;: &quot;&quot;,&lt;/p&gt;&lt;p&gt;&amp;nbsp; &amp;nbsp; &quot;answer&quot;: true,&lt;/p&gt;&lt;p&gt;&amp;nbsp; &amp;nbsp; &quot;timerSeconds&quot;: 0,&lt;/p&gt;&lt;p&gt;&amp;nbsp; &amp;nbsp; &quot;reward&quot;: 0&lt;/p&gt;&lt;p&gt;&amp;nbsp; },&lt;/p&gt;&lt;p&gt;&amp;nbsp; {&lt;/p&gt;&lt;p&gt;&amp;nbsp; &amp;nbsp; &quot;type&quot;: &quot;quiz_open&quot;,&lt;/p&gt;&lt;p&gt;&amp;nbsp; &amp;nbsp; &quot;contentQuestion&quot;: &quot;&quot;,&lt;/p&gt;&lt;p&gt;&amp;nbsp; &amp;nbsp; &quot;quantityCharacters&quot;: 0,&lt;/p&gt;&lt;p&gt;&amp;nbsp; &amp;nbsp; &quot;answer&quot;: &quot;&quot;,&lt;/p&gt;&lt;p&gt;&amp;nbsp; &amp;nbsp; &quot;timerSeconds&quot;: 0,&lt;/p&gt;&lt;p&gt;&amp;nbsp; &amp;nbsp; &quot;reward&quot;: 0&lt;/p&gt;&lt;p&gt;&amp;nbsp; },&lt;/p&gt;&lt;p&gt;&amp;nbsp; {&lt;/p&gt;&lt;p&gt;&amp;nbsp; &amp;nbsp; &quot;tipo&quot;: &quot;quiz_poll&quot;,&lt;/p&gt;&lt;p&gt;&amp;nbsp; &amp;nbsp; &quot;contentQuestion&quot;: &quot;&quot;,&lt;/p&gt;&lt;p&gt;&amp;nbsp; &amp;nbsp; &quot;alternatives&quot;: [],&lt;/p&gt;&lt;p&gt;&amp;nbsp; &amp;nbsp; &quot;answer&quot;: [],&lt;/p&gt;&lt;p&gt;&amp;nbsp; &amp;nbsp; &quot;timerSeconds&quot;: 0&lt;/p&gt;&lt;p&gt;&amp;nbsp; },&lt;/p&gt;&lt;p&gt;&amp;nbsp; {&lt;/p&gt;&lt;p&gt;&amp;nbsp; &amp;nbsp; &quot;tipo&quot;: &quot;quiz_word_cloud&quot;,&lt;/p&gt;&lt;p&gt;&amp;nbsp; &amp;nbsp; &quot;contentQuestion&quot;: &quot;&quot;,&lt;/p&gt;&lt;p&gt;&amp;nbsp; &amp;nbsp; &quot;quantityCharacters&quot;: 0,&lt;/p&gt;&lt;p&gt;&amp;nbsp; &amp;nbsp; &quot;timerSeconds&quot;: 0&lt;/p&gt;&lt;p&gt;&amp;nbsp; }&lt;/p&gt;&lt;p&gt;]&lt;/p&gt;" style="text;html=1;whiteSpace=wrap;overflow=hidden;rounded=0;fillColor=#d5e8d4;strokeColor=#82b366;" parent="3LQVrjWZMvgl_4kximQ7-18" vertex="1">
          <mxGeometry x="320" y="37.86" width="180" height="1322.14" as="geometry" />
        </mxCell>
      </root>
    </mxGraphModel>
  </diagram>
</mxfile>
